  0
SECTION
  2
HEADER
  9
$ACADVER
  1
AC1009
  9
$FILLMODE
 70
 0
  9
$SPLFRAME
 70
 1
  9
$EXTMIN
 10
0
 20
0
 30
0.0
  9
$EXTMAX
 10
1058.33
 20
1058.33
 30
0.0
  0
ENDSEC
  0
SECTION
  2
TABLES
  0
TABLE
  2
LAYER
 70
1
  0
LAYER
  2
0
 70
     0
 62
     7
  6
CONTINUOUS
  0
ENDTAB
  0
ENDSEC
  0
SECTION
  2
ENTITIES
  0
LINE
  8
0
 62
     0
 10
0.0950846
 20
76.4575
 30
0.0
 11
100.108
 21
76.4575
 31
0.0
  0
LINE
  8
0
 62
     0
 10
100.108
 20
76.4575
 30
0.0
 11
100.108
 21
0.257693
 31
0.0
  0
LINE
  8
0
 62
     0
 10
100.108
 20
0.257693
 30
0.0
 11
0.0950846
 21
0.257693
 31
0.0
  0
LINE
  8
0
 62
     0
 10
0.0950846
 20
0.257693
 30
0.0
 11
0.0950846
 21
76.4575
 31
0.0
  0
LINE
  8
0
 62
     0
 10
40.7197
 20
16.7831
 30
0.0
 11
40.7197
 21
15.7827
 31
0.0
  0
LINE
  8
0
 62
     0
 10
40.7197
 20
15.7827
 30
0.0
 11
39.9189
 21
15.7827
 31
0.0
  0
LINE
  8
0
 62
     0
 10
39.9189
 20
15.7827
 30
0.0
 11
39.9189
 21
12.6848
 31
0.0
  0
LINE
  8
0
 62
     0
 10
39.9189
 20
12.6848
 30
0.0
 11
40.7197
 21
12.6848
 31
0.0
  0
LINE
  8
0
 62
     0
 10
40.7197
 20
12.6848
 30
0.0
 11
40.7197
 21
6.88329
 31
0.0
  0
LINE
  8
0
 62
     0
 10
40.7197
 20
6.88329
 30
0.0
 11
39.9189
 21
6.88329
 31
0.0
  0
LINE
  8
0
 62
     0
 10
39.9189
 20
6.88329
 30
0.0
 11
39.9189
 21
3.78273
 31
0.0
  0
LINE
  8
0
 62
     0
 10
39.9189
 20
3.78273
 30
0.0
 11
40.7197
 21
3.78273
 31
0.0
  0
LINE
  8
0
 62
     0
 10
40.7197
 20
3.78273
 30
0.0
 11
40.7197
 21
2.78364
 31
0.0
  0
LINE
  8
0
 62
     0
 10
40.7197
 20
2.78364
 30
0.0
 11
54.719
 21
2.78364
 31
0.0
  0
LINE
  8
0
 62
     0
 10
54.719
 20
2.78364
 30
0.0
 11
54.719
 21
3.78273
 31
0.0
  0
LINE
  8
0
 62
     0
 10
54.719
 20
3.78273
 30
0.0
 11
55.5198
 21
3.78273
 31
0.0
  0
LINE
  8
0
 62
     0
 10
55.5198
 20
3.78273
 30
0.0
 11
55.5198
 21
6.88329
 31
0.0
  0
LINE
  8
0
 62
     0
 10
55.5198
 20
6.88329
 30
0.0
 11
54.719
 21
6.88329
 31
0.0
  0
LINE
  8
0
 62
     0
 10
54.719
 20
6.88329
 30
0.0
 11
54.719
 21
12.6848
 31
0.0
  0
LINE
  8
0
 62
     0
 10
54.719
 20
12.6848
 30
0.0
 11
55.5198
 21
12.6848
 31
0.0
  0
LINE
  8
0
 62
     0
 10
55.5198
 20
12.6848
 30
0.0
 11
55.5198
 21
15.7827
 31
0.0
  0
LINE
  8
0
 62
     0
 10
55.5198
 20
15.7827
 30
0.0
 11
54.719
 21
15.7827
 31
0.0
  0
LINE
  8
0
 62
     0
 10
54.719
 20
15.7827
 30
0.0
 11
54.719
 21
16.7831
 31
0.0
  0
LINE
  8
0
 62
     0
 10
54.719
 20
16.7831
 30
0.0
 11
40.7197
 21
16.7831
 31
0.0
  0
LINE
  8
0
 62
     0
 10
59.7697
 20
16.7831
 30
0.0
 11
59.7697
 21
15.7827
 31
0.0
  0
LINE
  8
0
 62
     0
 10
59.7697
 20
15.7827
 30
0.0
 11
58.9689
 21
15.7827
 31
0.0
  0
LINE
  8
0
 62
     0
 10
58.9689
 20
15.7827
 30
0.0
 11
58.9689
 21
12.6848
 31
0.0
  0
LINE
  8
0
 62
     0
 10
58.9689
 20
12.6848
 30
0.0
 11
59.7697
 21
12.6848
 31
0.0
  0
LINE
  8
0
 62
     0
 10
59.7697
 20
12.6848
 30
0.0
 11
59.7697
 21
6.88329
 31
0.0
  0
LINE
  8
0
 62
     0
 10
59.7697
 20
6.88329
 30
0.0
 11
58.9689
 21
6.88329
 31
0.0
  0
LINE
  8
0
 62
     0
 10
58.9689
 20
6.88329
 30
0.0
 11
58.9689
 21
3.78273
 31
0.0
  0
LINE
  8
0
 62
     0
 10
58.9689
 20
3.78273
 30
0.0
 11
59.7697
 21
3.78273
 31
0.0
  0
LINE
  8
0
 62
     0
 10
59.7697
 20
3.78273
 30
0.0
 11
59.7697
 21
2.78364
 31
0.0
  0
LINE
  8
0
 62
     0
 10
59.7697
 20
2.78364
 30
0.0
 11
73.769
 21
2.78364
 31
0.0
  0
LINE
  8
0
 62
     0
 10
73.769
 20
2.78364
 30
0.0
 11
73.769
 21
3.78273
 31
0.0
  0
LINE
  8
0
 62
     0
 10
73.769
 20
3.78273
 30
0.0
 11
74.5698
 21
3.78273
 31
0.0
  0
LINE
  8
0
 62
     0
 10
74.5698
 20
3.78273
 30
0.0
 11
74.5698
 21
6.88329
 31
0.0
  0
LINE
  8
0
 62
     0
 10
74.5698
 20
6.88329
 30
0.0
 11
73.769
 21
6.88329
 31
0.0
  0
LINE
  8
0
 62
     0
 10
73.769
 20
6.88329
 30
0.0
 11
73.769
 21
12.6848
 31
0.0
  0
LINE
  8
0
 62
     0
 10
73.769
 20
12.6848
 30
0.0
 11
74.5698
 21
12.6848
 31
0.0
  0
LINE
  8
0
 62
     0
 10
74.5698
 20
12.6848
 30
0.0
 11
74.5698
 21
15.7827
 31
0.0
  0
LINE
  8
0
 62
     0
 10
74.5698
 20
15.7827
 30
0.0
 11
73.769
 21
15.7827
 31
0.0
  0
LINE
  8
0
 62
     0
 10
73.769
 20
15.7827
 30
0.0
 11
73.769
 21
16.7831
 31
0.0
  0
LINE
  8
0
 62
     0
 10
73.769
 20
16.7831
 30
0.0
 11
59.7697
 21
16.7831
 31
0.0
  0
LINE
  8
0
 62
     0
 10
78.8197
 20
16.7831
 30
0.0
 11
78.8197
 21
15.7827
 31
0.0
  0
LINE
  8
0
 62
     0
 10
78.8197
 20
15.7827
 30
0.0
 11
78.0189
 21
15.7827
 31
0.0
  0
LINE
  8
0
 62
     0
 10
78.0189
 20
15.7827
 30
0.0
 11
78.0189
 21
12.6848
 31
0.0
  0
LINE
  8
0
 62
     0
 10
78.0189
 20
12.6848
 30
0.0
 11
78.8197
 21
12.6848
 31
0.0
  0
LINE
  8
0
 62
     0
 10
78.8197
 20
12.6848
 30
0.0
 11
78.8197
 21
6.88329
 31
0.0
  0
LINE
  8
0
 62
     0
 10
78.8197
 20
6.88329
 30
0.0
 11
78.0189
 21
6.88329
 31
0.0
  0
LINE
  8
0
 62
     0
 10
78.0189
 20
6.88329
 30
0.0
 11
78.0189
 21
3.78273
 31
0.0
  0
LINE
  8
0
 62
     0
 10
78.0189
 20
3.78273
 30
0.0
 11
78.8197
 21
3.78273
 31
0.0
  0
LINE
  8
0
 62
     0
 10
78.8197
 20
3.78273
 30
0.0
 11
78.8197
 21
2.78364
 31
0.0
  0
LINE
  8
0
 62
     0
 10
78.8197
 20
2.78364
 30
0.0
 11
92.819
 21
2.78364
 31
0.0
  0
LINE
  8
0
 62
     0
 10
92.819
 20
2.78364
 30
0.0
 11
92.819
 21
3.78273
 31
0.0
  0
LINE
  8
0
 62
     0
 10
92.819
 20
3.78273
 30
0.0
 11
93.6184
 21
3.78273
 31
0.0
  0
LINE
  8
0
 62
     0
 10
93.6184
 20
3.78273
 30
0.0
 11
93.6184
 21
6.88329
 31
0.0
  0
LINE
  8
0
 62
     0
 10
93.6184
 20
6.88329
 30
0.0
 11
92.819
 21
6.88329
 31
0.0
  0
LINE
  8
0
 62
     0
 10
92.819
 20
6.88329
 30
0.0
 11
92.819
 21
12.6848
 31
0.0
  0
LINE
  8
0
 62
     0
 10
92.819
 20
12.6848
 30
0.0
 11
93.6184
 21
12.6848
 31
0.0
  0
LINE
  8
0
 62
     0
 10
93.6184
 20
12.6848
 30
0.0
 11
93.6184
 21
15.7827
 31
0.0
  0
LINE
  8
0
 62
     0
 10
93.6184
 20
15.7827
 30
0.0
 11
92.819
 21
15.7827
 31
0.0
  0
LINE
  8
0
 62
     0
 10
92.819
 20
15.7827
 30
0.0
 11
92.819
 21
16.7831
 31
0.0
  0
LINE
  8
0
 62
     0
 10
92.819
 20
16.7831
 30
0.0
 11
78.8197
 21
16.7831
 31
0.0
  0
LINE
  8
0
 62
     0
 10
16.9072
 20
35.833
 30
0.0
 11
16.9072
 21
34.8327
 31
0.0
  0
LINE
  8
0
 62
     0
 10
16.9072
 20
34.8327
 30
0.0
 11
16.1065
 21
34.8327
 31
0.0
  0
LINE
  8
0
 62
     0
 10
16.1065
 20
34.8327
 30
0.0
 11
16.1065
 21
31.7335
 31
0.0
  0
LINE
  8
0
 62
     0
 10
16.1065
 20
31.7335
 30
0.0
 11
16.9072
 21
31.7335
 31
0.0
  0
LINE
  8
0
 62
     0
 10
16.9072
 20
31.7335
 30
0.0
 11
16.9072
 21
25.9333
 31
0.0
  0
LINE
  8
0
 62
     0
 10
16.9072
 20
25.9333
 30
0.0
 11
16.1065
 21
25.9333
 31
0.0
  0
LINE
  8
0
 62
     0
 10
16.1065
 20
25.9333
 30
0.0
 11
16.1065
 21
22.8327
 31
0.0
  0
LINE
  8
0
 62
     0
 10
16.1065
 20
22.8327
 30
0.0
 11
16.9072
 21
22.8327
 31
0.0
  0
LINE
  8
0
 62
     0
 10
16.9072
 20
22.8327
 30
0.0
 11
16.9072
 21
21.8336
 31
0.0
  0
LINE
  8
0
 62
     0
 10
16.9072
 20
21.8336
 30
0.0
 11
30.9066
 21
21.8336
 31
0.0
  0
LINE
  8
0
 62
     0
 10
30.9066
 20
21.8336
 30
0.0
 11
30.9066
 21
22.8327
 31
0.0
  0
LINE
  8
0
 62
     0
 10
30.9066
 20
22.8327
 30
0.0
 11
31.7059
 21
22.8327
 31
0.0
  0
LINE
  8
0
 62
     0
 10
31.7059
 20
22.8327
 30
0.0
 11
31.7059
 21
25.9333
 31
0.0
  0
LINE
  8
0
 62
     0
 10
31.7059
 20
25.9333
 30
0.0
 11
30.9066
 21
25.9333
 31
0.0
  0
LINE
  8
0
 62
     0
 10
30.9066
 20
25.9333
 30
0.0
 11
30.9066
 21
31.7335
 31
0.0
  0
LINE
  8
0
 62
     0
 10
30.9066
 20
31.7335
 30
0.0
 11
31.7059
 21
31.7335
 31
0.0
  0
LINE
  8
0
 62
     0
 10
31.7059
 20
31.7335
 30
0.0
 11
31.7059
 21
34.8327
 31
0.0
  0
LINE
  8
0
 62
     0
 10
31.7059
 20
34.8327
 30
0.0
 11
30.9066
 21
34.8327
 31
0.0
  0
LINE
  8
0
 62
     0
 10
30.9066
 20
34.8327
 30
0.0
 11
30.9066
 21
35.833
 31
0.0
  0
LINE
  8
0
 62
     0
 10
30.9066
 20
35.833
 30
0.0
 11
16.9072
 21
35.833
 31
0.0
  0
LINE
  8
0
 62
     0
 10
35.9572
 20
35.833
 30
0.0
 11
35.9572
 21
34.8327
 31
0.0
  0
LINE
  8
0
 62
     0
 10
35.9572
 20
34.8327
 30
0.0
 11
35.1565
 21
34.8327
 31
0.0
  0
LINE
  8
0
 62
     0
 10
35.1565
 20
34.8327
 30
0.0
 11
35.1565
 21
31.7335
 31
0.0
  0
LINE
  8
0
 62
     0
 10
35.1565
 20
31.7335
 30
0.0
 11
35.9572
 21
31.7335
 31
0.0
  0
LINE
  8
0
 62
     0
 10
35.9572
 20
31.7335
 30
0.0
 11
35.9572
 21
25.9333
 31
0.0
  0
LINE
  8
0
 62
     0
 10
35.9572
 20
25.9333
 30
0.0
 11
35.1565
 21
25.9333
 31
0.0
  0
LINE
  8
0
 62
     0
 10
35.1565
 20
25.9333
 30
0.0
 11
35.1565
 21
22.8327
 31
0.0
  0
LINE
  8
0
 62
     0
 10
35.1565
 20
22.8327
 30
0.0
 11
35.9572
 21
22.8327
 31
0.0
  0
LINE
  8
0
 62
     0
 10
35.9572
 20
22.8327
 30
0.0
 11
35.9572
 21
21.8336
 31
0.0
  0
LINE
  8
0
 62
     0
 10
35.9572
 20
21.8336
 30
0.0
 11
49.9565
 21
21.8336
 31
0.0
  0
LINE
  8
0
 62
     0
 10
49.9565
 20
21.8336
 30
0.0
 11
49.9565
 21
22.8327
 31
0.0
  0
LINE
  8
0
 62
     0
 10
49.9565
 20
22.8327
 30
0.0
 11
50.7559
 21
22.8327
 31
0.0
  0
LINE
  8
0
 62
     0
 10
50.7559
 20
22.8327
 30
0.0
 11
50.7559
 21
25.9333
 31
0.0
  0
LINE
  8
0
 62
     0
 10
50.7559
 20
25.9333
 30
0.0
 11
49.9565
 21
25.9333
 31
0.0
  0
LINE
  8
0
 62
     0
 10
49.9565
 20
25.9333
 30
0.0
 11
49.9565
 21
31.7335
 31
0.0
  0
LINE
  8
0
 62
     0
 10
49.9565
 20
31.7335
 30
0.0
 11
50.7559
 21
31.7335
 31
0.0
  0
LINE
  8
0
 62
     0
 10
50.7559
 20
31.7335
 30
0.0
 11
50.7559
 21
34.8327
 31
0.0
  0
LINE
  8
0
 62
     0
 10
50.7559
 20
34.8327
 30
0.0
 11
49.9565
 21
34.8327
 31
0.0
  0
LINE
  8
0
 62
     0
 10
49.9565
 20
34.8327
 30
0.0
 11
49.9565
 21
35.833
 31
0.0
  0
LINE
  8
0
 62
     0
 10
49.9565
 20
35.833
 30
0.0
 11
35.9572
 21
35.833
 31
0.0
  0
LINE
  8
0
 62
     0
 10
55.0072
 20
35.833
 30
0.0
 11
55.0072
 21
34.8327
 31
0.0
  0
LINE
  8
0
 62
     0
 10
55.0072
 20
34.8327
 30
0.0
 11
54.2064
 21
34.8327
 31
0.0
  0
LINE
  8
0
 62
     0
 10
54.2064
 20
34.8327
 30
0.0
 11
54.2064
 21
31.7335
 31
0.0
  0
LINE
  8
0
 62
     0
 10
54.2064
 20
31.7335
 30
0.0
 11
55.0072
 21
31.7335
 31
0.0
  0
LINE
  8
0
 62
     0
 10
55.0072
 20
31.7335
 30
0.0
 11
55.0072
 21
25.9333
 31
0.0
  0
LINE
  8
0
 62
     0
 10
55.0072
 20
25.9333
 30
0.0
 11
54.2064
 21
25.9333
 31
0.0
  0
LINE
  8
0
 62
     0
 10
54.2064
 20
25.9333
 30
0.0
 11
54.2064
 21
22.8327
 31
0.0
  0
LINE
  8
0
 62
     0
 10
54.2064
 20
22.8327
 30
0.0
 11
55.0072
 21
22.8327
 31
0.0
  0
LINE
  8
0
 62
     0
 10
55.0072
 20
22.8327
 30
0.0
 11
55.0072
 21
21.8336
 31
0.0
  0
LINE
  8
0
 62
     0
 10
55.0072
 20
21.8336
 30
0.0
 11
69.0065
 21
21.8336
 31
0.0
  0
LINE
  8
0
 62
     0
 10
69.0065
 20
21.8336
 30
0.0
 11
69.0065
 21
22.8327
 31
0.0
  0
LINE
  8
0
 62
     0
 10
69.0065
 20
22.8327
 30
0.0
 11
69.8059
 21
22.8327
 31
0.0
  0
LINE
  8
0
 62
     0
 10
69.8059
 20
22.8327
 30
0.0
 11
69.8059
 21
25.9333
 31
0.0
  0
LINE
  8
0
 62
     0
 10
69.8059
 20
25.9333
 30
0.0
 11
69.0065
 21
25.9333
 31
0.0
  0
LINE
  8
0
 62
     0
 10
69.0065
 20
25.9333
 30
0.0
 11
69.0065
 21
31.7335
 31
0.0
  0
LINE
  8
0
 62
     0
 10
69.0065
 20
31.7335
 30
0.0
 11
69.8059
 21
31.7335
 31
0.0
  0
LINE
  8
0
 62
     0
 10
69.8059
 20
31.7335
 30
0.0
 11
69.8059
 21
34.8327
 31
0.0
  0
LINE
  8
0
 62
     0
 10
69.8059
 20
34.8327
 30
0.0
 11
69.0065
 21
34.8327
 31
0.0
  0
LINE
  8
0
 62
     0
 10
69.0065
 20
34.8327
 30
0.0
 11
69.0065
 21
35.833
 31
0.0
  0
LINE
  8
0
 62
     0
 10
69.0065
 20
35.833
 30
0.0
 11
55.0072
 21
35.833
 31
0.0
  0
LINE
  8
0
 62
     0
 10
74.0572
 20
35.833
 30
0.0
 11
74.0572
 21
34.8327
 31
0.0
  0
LINE
  8
0
 62
     0
 10
74.0572
 20
34.8327
 30
0.0
 11
73.2564
 21
34.8327
 31
0.0
  0
LINE
  8
0
 62
     0
 10
73.2564
 20
34.8327
 30
0.0
 11
73.2564
 21
31.7335
 31
0.0
  0
LINE
  8
0
 62
     0
 10
73.2564
 20
31.7335
 30
0.0
 11
74.0572
 21
31.7335
 31
0.0
  0
LINE
  8
0
 62
     0
 10
74.0572
 20
31.7335
 30
0.0
 11
74.0572
 21
25.9333
 31
0.0
  0
LINE
  8
0
 62
     0
 10
74.0572
 20
25.9333
 30
0.0
 11
73.2564
 21
25.9333
 31
0.0
  0
LINE
  8
0
 62
     0
 10
73.2564
 20
25.9333
 30
0.0
 11
73.2564
 21
22.8327
 31
0.0
  0
LINE
  8
0
 62
     0
 10
73.2564
 20
22.8327
 30
0.0
 11
74.0572
 21
22.8327
 31
0.0
  0
LINE
  8
0
 62
     0
 10
74.0572
 20
22.8327
 30
0.0
 11
74.0572
 21
21.8336
 31
0.0
  0
LINE
  8
0
 62
     0
 10
74.0572
 20
21.8336
 30
0.0
 11
88.0565
 21
21.8336
 31
0.0
  0
LINE
  8
0
 62
     0
 10
88.0565
 20
21.8336
 30
0.0
 11
88.0565
 21
22.8327
 31
0.0
  0
LINE
  8
0
 62
     0
 10
88.0565
 20
22.8327
 30
0.0
 11
88.8559
 21
22.8327
 31
0.0
  0
LINE
  8
0
 62
     0
 10
88.8559
 20
22.8327
 30
0.0
 11
88.8559
 21
25.9333
 31
0.0
  0
LINE
  8
0
 62
     0
 10
88.8559
 20
25.9333
 30
0.0
 11
88.0565
 21
25.9333
 31
0.0
  0
LINE
  8
0
 62
     0
 10
88.0565
 20
25.9333
 30
0.0
 11
88.0565
 21
31.7335
 31
0.0
  0
LINE
  8
0
 62
     0
 10
88.0565
 20
31.7335
 30
0.0
 11
88.8559
 21
31.7335
 31
0.0
  0
LINE
  8
0
 62
     0
 10
88.8559
 20
31.7335
 30
0.0
 11
88.8559
 21
34.8327
 31
0.0
  0
LINE
  8
0
 62
     0
 10
88.8559
 20
34.8327
 30
0.0
 11
88.0565
 21
34.8327
 31
0.0
  0
LINE
  8
0
 62
     0
 10
88.0565
 20
34.8327
 30
0.0
 11
88.0565
 21
35.833
 31
0.0
  0
LINE
  8
0
 62
     0
 10
88.0565
 20
35.833
 30
0.0
 11
74.0572
 21
35.833
 31
0.0
  0
LINE
  8
0
 62
     0
 10
7.38216
 20
54.8831
 30
0.0
 11
7.38216
 21
53.8826
 31
0.0
  0
LINE
  8
0
 62
     0
 10
7.38216
 20
53.8826
 30
0.0
 11
6.58153
 21
53.8826
 31
0.0
  0
LINE
  8
0
 62
     0
 10
6.58153
 20
53.8826
 30
0.0
 11
6.58153
 21
50.7834
 31
0.0
  0
LINE
  8
0
 62
     0
 10
6.58153
 20
50.7834
 30
0.0
 11
7.38216
 21
50.7834
 31
0.0
  0
LINE
  8
0
 62
     0
 10
7.38216
 20
50.7834
 30
0.0
 11
7.38216
 21
44.9834
 31
0.0
  0
LINE
  8
0
 62
     0
 10
7.38216
 20
44.9834
 30
0.0
 11
6.58153
 21
44.9834
 31
0.0
  0
LINE
  8
0
 62
     0
 10
6.58153
 20
44.9834
 30
0.0
 11
6.58153
 21
41.8828
 31
0.0
  0
LINE
  8
0
 62
     0
 10
6.58153
 20
41.8828
 30
0.0
 11
7.38216
 21
41.8828
 31
0.0
  0
LINE
  8
0
 62
     0
 10
7.38216
 20
41.8828
 30
0.0
 11
7.38216
 21
40.8838
 31
0.0
  0
LINE
  8
0
 62
     0
 10
7.38216
 20
40.8838
 30
0.0
 11
21.3817
 21
40.8838
 31
0.0
  0
LINE
  8
0
 62
     0
 10
21.3817
 20
40.8838
 30
0.0
 11
21.3817
 21
41.8828
 31
0.0
  0
LINE
  8
0
 62
     0
 10
21.3817
 20
41.8828
 30
0.0
 11
22.1809
 21
41.8828
 31
0.0
  0
LINE
  8
0
 62
     0
 10
22.1809
 20
41.8828
 30
0.0
 11
22.1809
 21
44.9834
 31
0.0
  0
LINE
  8
0
 62
     0
 10
22.1809
 20
44.9834
 30
0.0
 11
21.3817
 21
44.9834
 31
0.0
  0
LINE
  8
0
 62
     0
 10
21.3817
 20
44.9834
 30
0.0
 11
21.3817
 21
50.7834
 31
0.0
  0
LINE
  8
0
 62
     0
 10
21.3817
 20
50.7834
 30
0.0
 11
22.1809
 21
50.7834
 31
0.0
  0
LINE
  8
0
 62
     0
 10
22.1809
 20
50.7834
 30
0.0
 11
22.1809
 21
53.8826
 31
0.0
  0
LINE
  8
0
 62
     0
 10
22.1809
 20
53.8826
 30
0.0
 11
21.3817
 21
53.8826
 31
0.0
  0
LINE
  8
0
 62
     0
 10
21.3817
 20
53.8826
 30
0.0
 11
21.3817
 21
54.8831
 31
0.0
  0
LINE
  8
0
 62
     0
 10
21.3817
 20
54.8831
 30
0.0
 11
7.38216
 21
54.8831
 31
0.0
  0
LINE
  8
0
 62
     0
 10
26.4322
 20
54.8831
 30
0.0
 11
26.4322
 21
53.8826
 31
0.0
  0
LINE
  8
0
 62
     0
 10
26.4322
 20
53.8826
 30
0.0
 11
25.6315
 21
53.8826
 31
0.0
  0
LINE
  8
0
 62
     0
 10
25.6315
 20
53.8826
 30
0.0
 11
25.6315
 21
50.7834
 31
0.0
  0
LINE
  8
0
 62
     0
 10
25.6315
 20
50.7834
 30
0.0
 11
26.4322
 21
50.7834
 31
0.0
  0
LINE
  8
0
 62
     0
 10
26.4322
 20
50.7834
 30
0.0
 11
26.4322
 21
44.9834
 31
0.0
  0
LINE
  8
0
 62
     0
 10
26.4322
 20
44.9834
 30
0.0
 11
25.6315
 21
44.9834
 31
0.0
  0
LINE
  8
0
 62
     0
 10
25.6315
 20
44.9834
 30
0.0
 11
25.6315
 21
41.8828
 31
0.0
  0
LINE
  8
0
 62
     0
 10
25.6315
 20
41.8828
 30
0.0
 11
26.4322
 21
41.8828
 31
0.0
  0
LINE
  8
0
 62
     0
 10
26.4322
 20
41.8828
 30
0.0
 11
26.4322
 21
40.8838
 31
0.0
  0
LINE
  8
0
 62
     0
 10
26.4322
 20
40.8838
 30
0.0
 11
40.4315
 21
40.8838
 31
0.0
  0
LINE
  8
0
 62
     0
 10
40.4315
 20
40.8838
 30
0.0
 11
40.4315
 21
41.8828
 31
0.0
  0
LINE
  8
0
 62
     0
 10
40.4315
 20
41.8828
 30
0.0
 11
41.2309
 21
41.8828
 31
0.0
  0
LINE
  8
0
 62
     0
 10
41.2309
 20
41.8828
 30
0.0
 11
41.2309
 21
44.9834
 31
0.0
  0
LINE
  8
0
 62
     0
 10
41.2309
 20
44.9834
 30
0.0
 11
40.4315
 21
44.9834
 31
0.0
  0
LINE
  8
0
 62
     0
 10
40.4315
 20
44.9834
 30
0.0
 11
40.4315
 21
50.7834
 31
0.0
  0
LINE
  8
0
 62
     0
 10
40.4315
 20
50.7834
 30
0.0
 11
41.2309
 21
50.7834
 31
0.0
  0
LINE
  8
0
 62
     0
 10
41.2309
 20
50.7834
 30
0.0
 11
41.2309
 21
53.8826
 31
0.0
  0
LINE
  8
0
 62
     0
 10
41.2309
 20
53.8826
 30
0.0
 11
40.4315
 21
53.8826
 31
0.0
  0
LINE
  8
0
 62
     0
 10
40.4315
 20
53.8826
 30
0.0
 11
40.4315
 21
54.8831
 31
0.0
  0
LINE
  8
0
 62
     0
 10
40.4315
 20
54.8831
 30
0.0
 11
26.4322
 21
54.8831
 31
0.0
  0
LINE
  8
0
 62
     0
 10
45.4822
 20
54.8831
 30
0.0
 11
45.4822
 21
53.8826
 31
0.0
  0
LINE
  8
0
 62
     0
 10
45.4822
 20
53.8826
 30
0.0
 11
44.6814
 21
53.8826
 31
0.0
  0
LINE
  8
0
 62
     0
 10
44.6814
 20
53.8826
 30
0.0
 11
44.6814
 21
50.7834
 31
0.0
  0
LINE
  8
0
 62
     0
 10
44.6814
 20
50.7834
 30
0.0
 11
45.4822
 21
50.7834
 31
0.0
  0
LINE
  8
0
 62
     0
 10
45.4822
 20
50.7834
 30
0.0
 11
45.4822
 21
44.9834
 31
0.0
  0
LINE
  8
0
 62
     0
 10
45.4822
 20
44.9834
 30
0.0
 11
44.6814
 21
44.9834
 31
0.0
  0
LINE
  8
0
 62
     0
 10
44.6814
 20
44.9834
 30
0.0
 11
44.6814
 21
41.8828
 31
0.0
  0
LINE
  8
0
 62
     0
 10
44.6814
 20
41.8828
 30
0.0
 11
45.4822
 21
41.8828
 31
0.0
  0
LINE
  8
0
 62
     0
 10
45.4822
 20
41.8828
 30
0.0
 11
45.4822
 21
40.8838
 31
0.0
  0
LINE
  8
0
 62
     0
 10
45.4822
 20
40.8838
 30
0.0
 11
59.4815
 21
40.8838
 31
0.0
  0
LINE
  8
0
 62
     0
 10
59.4815
 20
40.8838
 30
0.0
 11
59.4815
 21
41.8828
 31
0.0
  0
LINE
  8
0
 62
     0
 10
59.4815
 20
41.8828
 30
0.0
 11
60.2809
 21
41.8828
 31
0.0
  0
LINE
  8
0
 62
     0
 10
60.2809
 20
41.8828
 30
0.0
 11
60.2809
 21
44.9834
 31
0.0
  0
LINE
  8
0
 62
     0
 10
60.2809
 20
44.9834
 30
0.0
 11
59.4815
 21
44.9834
 31
0.0
  0
LINE
  8
0
 62
     0
 10
59.4815
 20
44.9834
 30
0.0
 11
59.4815
 21
50.7834
 31
0.0
  0
LINE
  8
0
 62
     0
 10
59.4815
 20
50.7834
 30
0.0
 11
60.2809
 21
50.7834
 31
0.0
  0
LINE
  8
0
 62
     0
 10
60.2809
 20
50.7834
 30
0.0
 11
60.2809
 21
53.8826
 31
0.0
  0
LINE
  8
0
 62
     0
 10
60.2809
 20
53.8826
 30
0.0
 11
59.4815
 21
53.8826
 31
0.0
  0
LINE
  8
0
 62
     0
 10
59.4815
 20
53.8826
 30
0.0
 11
59.4815
 21
54.8831
 31
0.0
  0
LINE
  8
0
 62
     0
 10
59.4815
 20
54.8831
 30
0.0
 11
45.4822
 21
54.8831
 31
0.0
  0
LINE
  8
0
 62
     0
 10
64.5322
 20
54.8831
 30
0.0
 11
64.5322
 21
53.8826
 31
0.0
  0
LINE
  8
0
 62
     0
 10
64.5322
 20
53.8826
 30
0.0
 11
63.7314
 21
53.8826
 31
0.0
  0
LINE
  8
0
 62
     0
 10
63.7314
 20
53.8826
 30
0.0
 11
63.7314
 21
50.7834
 31
0.0
  0
LINE
  8
0
 62
     0
 10
63.7314
 20
50.7834
 30
0.0
 11
64.5322
 21
50.7834
 31
0.0
  0
LINE
  8
0
 62
     0
 10
64.5322
 20
50.7834
 30
0.0
 11
64.5322
 21
44.9834
 31
0.0
  0
LINE
  8
0
 62
     0
 10
64.5322
 20
44.9834
 30
0.0
 11
63.7314
 21
44.9834
 31
0.0
  0
LINE
  8
0
 62
     0
 10
63.7314
 20
44.9834
 30
0.0
 11
63.7314
 21
41.8828
 31
0.0
  0
LINE
  8
0
 62
     0
 10
63.7314
 20
41.8828
 30
0.0
 11
64.5322
 21
41.8828
 31
0.0
  0
LINE
  8
0
 62
     0
 10
64.5322
 20
41.8828
 30
0.0
 11
64.5322
 21
40.8838
 31
0.0
  0
LINE
  8
0
 62
     0
 10
64.5322
 20
40.8838
 30
0.0
 11
78.5315
 21
40.8838
 31
0.0
  0
LINE
  8
0
 62
     0
 10
78.5315
 20
40.8838
 30
0.0
 11
78.5315
 21
41.8828
 31
0.0
  0
LINE
  8
0
 62
     0
 10
78.5315
 20
41.8828
 30
0.0
 11
79.3309
 21
41.8828
 31
0.0
  0
LINE
  8
0
 62
     0
 10
79.3309
 20
41.8828
 30
0.0
 11
79.3309
 21
44.9834
 31
0.0
  0
LINE
  8
0
 62
     0
 10
79.3309
 20
44.9834
 30
0.0
 11
78.5315
 21
44.9834
 31
0.0
  0
LINE
  8
0
 62
     0
 10
78.5315
 20
44.9834
 30
0.0
 11
78.5315
 21
50.7834
 31
0.0
  0
LINE
  8
0
 62
     0
 10
78.5315
 20
50.7834
 30
0.0
 11
79.3309
 21
50.7834
 31
0.0
  0
LINE
  8
0
 62
     0
 10
79.3309
 20
50.7834
 30
0.0
 11
79.3309
 21
53.8826
 31
0.0
  0
LINE
  8
0
 62
     0
 10
79.3309
 20
53.8826
 30
0.0
 11
78.5315
 21
53.8826
 31
0.0
  0
LINE
  8
0
 62
     0
 10
78.5315
 20
53.8826
 30
0.0
 11
78.5315
 21
54.8831
 31
0.0
  0
LINE
  8
0
 62
     0
 10
78.5315
 20
54.8831
 30
0.0
 11
64.5322
 21
54.8831
 31
0.0
  0
LINE
  8
0
 62
     0
 10
83.5822
 20
54.8831
 30
0.0
 11
83.5822
 21
53.8826
 31
0.0
  0
LINE
  8
0
 62
     0
 10
83.5822
 20
53.8826
 30
0.0
 11
82.7814
 21
53.8826
 31
0.0
  0
LINE
  8
0
 62
     0
 10
82.7814
 20
53.8826
 30
0.0
 11
82.7814
 21
50.7834
 31
0.0
  0
LINE
  8
0
 62
     0
 10
82.7814
 20
50.7834
 30
0.0
 11
83.5822
 21
50.7834
 31
0.0
  0
LINE
  8
0
 62
     0
 10
83.5822
 20
50.7834
 30
0.0
 11
83.5822
 21
44.9834
 31
0.0
  0
LINE
  8
0
 62
     0
 10
83.5822
 20
44.9834
 30
0.0
 11
82.7814
 21
44.9834
 31
0.0
  0
LINE
  8
0
 62
     0
 10
82.7814
 20
44.9834
 30
0.0
 11
82.7814
 21
41.8828
 31
0.0
  0
LINE
  8
0
 62
     0
 10
82.7814
 20
41.8828
 30
0.0
 11
83.5822
 21
41.8828
 31
0.0
  0
LINE
  8
0
 62
     0
 10
83.5822
 20
41.8828
 30
0.0
 11
83.5822
 21
40.8838
 31
0.0
  0
LINE
  8
0
 62
     0
 10
83.5822
 20
40.8838
 30
0.0
 11
97.5815
 21
40.8838
 31
0.0
  0
LINE
  8
0
 62
     0
 10
97.5815
 20
40.8838
 30
0.0
 11
97.5815
 21
41.8828
 31
0.0
  0
LINE
  8
0
 62
     0
 10
97.5815
 20
41.8828
 30
0.0
 11
98.3809
 21
41.8828
 31
0.0
  0
LINE
  8
0
 62
     0
 10
98.3809
 20
41.8828
 30
0.0
 11
98.3809
 21
44.9834
 31
0.0
  0
LINE
  8
0
 62
     0
 10
98.3809
 20
44.9834
 30
0.0
 11
97.5815
 21
44.9834
 31
0.0
  0
LINE
  8
0
 62
     0
 10
97.5815
 20
44.9834
 30
0.0
 11
97.5815
 21
50.7834
 31
0.0
  0
LINE
  8
0
 62
     0
 10
97.5815
 20
50.7834
 30
0.0
 11
98.3809
 21
50.7834
 31
0.0
  0
LINE
  8
0
 62
     0
 10
98.3809
 20
50.7834
 30
0.0
 11
98.3809
 21
53.8826
 31
0.0
  0
LINE
  8
0
 62
     0
 10
98.3809
 20
53.8826
 30
0.0
 11
97.5815
 21
53.8826
 31
0.0
  0
LINE
  8
0
 62
     0
 10
97.5815
 20
53.8826
 30
0.0
 11
97.5815
 21
54.8831
 31
0.0
  0
LINE
  8
0
 62
     0
 10
97.5815
 20
54.8831
 30
0.0
 11
83.5822
 21
54.8831
 31
0.0
  0
LINE
  8
0
 62
     0
 10
2.61965
 20
73.9331
 30
0.0
 11
2.61965
 21
72.9326
 31
0.0
  0
LINE
  8
0
 62
     0
 10
2.61965
 20
72.9326
 30
0.0
 11
1.81901
 21
72.9326
 31
0.0
  0
LINE
  8
0
 62
     0
 10
1.81901
 20
72.9326
 30
0.0
 11
1.81901
 21
69.8334
 31
0.0
  0
LINE
  8
0
 62
     0
 10
1.81901
 20
69.8334
 30
0.0
 11
2.61965
 21
69.8334
 31
0.0
  0
LINE
  8
0
 62
     0
 10
2.61965
 20
69.8334
 30
0.0
 11
2.61965
 21
64.0334
 31
0.0
  0
LINE
  8
0
 62
     0
 10
2.61965
 20
64.0334
 30
0.0
 11
1.81901
 21
64.0334
 31
0.0
  0
LINE
  8
0
 62
     0
 10
1.81901
 20
64.0334
 30
0.0
 11
1.81901
 21
60.9328
 31
0.0
  0
LINE
  8
0
 62
     0
 10
1.81901
 20
60.9328
 30
0.0
 11
2.61965
 21
60.9328
 31
0.0
  0
LINE
  8
0
 62
     0
 10
2.61965
 20
60.9328
 30
0.0
 11
2.61965
 21
59.9338
 31
0.0
  0
LINE
  8
0
 62
     0
 10
2.61965
 20
59.9338
 30
0.0
 11
16.6192
 21
59.9338
 31
0.0
  0
LINE
  8
0
 62
     0
 10
16.6192
 20
59.9338
 30
0.0
 11
16.6192
 21
60.9328
 31
0.0
  0
LINE
  8
0
 62
     0
 10
16.6192
 20
60.9328
 30
0.0
 11
17.4198
 21
60.9328
 31
0.0
  0
LINE
  8
0
 62
     0
 10
17.4198
 20
60.9328
 30
0.0
 11
17.4198
 21
64.0334
 31
0.0
  0
LINE
  8
0
 62
     0
 10
17.4198
 20
64.0334
 30
0.0
 11
16.6192
 21
64.0334
 31
0.0
  0
LINE
  8
0
 62
     0
 10
16.6192
 20
64.0334
 30
0.0
 11
16.6192
 21
69.8334
 31
0.0
  0
LINE
  8
0
 62
     0
 10
16.6192
 20
69.8334
 30
0.0
 11
17.4198
 21
69.8334
 31
0.0
  0
LINE
  8
0
 62
     0
 10
17.4198
 20
69.8334
 30
0.0
 11
17.4198
 21
72.9326
 31
0.0
  0
LINE
  8
0
 62
     0
 10
17.4198
 20
72.9326
 30
0.0
 11
16.6192
 21
72.9326
 31
0.0
  0
LINE
  8
0
 62
     0
 10
16.6192
 20
72.9326
 30
0.0
 11
16.6192
 21
73.9331
 31
0.0
  0
LINE
  8
0
 62
     0
 10
16.6192
 20
73.9331
 30
0.0
 11
2.61965
 21
73.9331
 31
0.0
  0
LINE
  8
0
 62
     0
 10
21.6697
 20
73.9331
 30
0.0
 11
21.6697
 21
72.9326
 31
0.0
  0
LINE
  8
0
 62
     0
 10
21.6697
 20
72.9326
 30
0.0
 11
20.869
 21
72.9326
 31
0.0
  0
LINE
  8
0
 62
     0
 10
20.869
 20
72.9326
 30
0.0
 11
20.869
 21
69.8334
 31
0.0
  0
LINE
  8
0
 62
     0
 10
20.869
 20
69.8334
 30
0.0
 11
21.6697
 21
69.8334
 31
0.0
  0
LINE
  8
0
 62
     0
 10
21.6697
 20
69.8334
 30
0.0
 11
21.6697
 21
64.0334
 31
0.0
  0
LINE
  8
0
 62
     0
 10
21.6697
 20
64.0334
 30
0.0
 11
20.869
 21
64.0334
 31
0.0
  0
LINE
  8
0
 62
     0
 10
20.869
 20
64.0334
 30
0.0
 11
20.869
 21
60.9328
 31
0.0
  0
LINE
  8
0
 62
     0
 10
20.869
 20
60.9328
 30
0.0
 11
21.6697
 21
60.9328
 31
0.0
  0
LINE
  8
0
 62
     0
 10
21.6697
 20
60.9328
 30
0.0
 11
21.6697
 21
59.9338
 31
0.0
  0
LINE
  8
0
 62
     0
 10
21.6697
 20
59.9338
 30
0.0
 11
35.669
 21
59.9338
 31
0.0
  0
LINE
  8
0
 62
     0
 10
35.669
 20
59.9338
 30
0.0
 11
35.669
 21
60.9328
 31
0.0
  0
LINE
  8
0
 62
     0
 10
35.669
 20
60.9328
 30
0.0
 11
36.4698
 21
60.9328
 31
0.0
  0
LINE
  8
0
 62
     0
 10
36.4698
 20
60.9328
 30
0.0
 11
36.4698
 21
64.0334
 31
0.0
  0
LINE
  8
0
 62
     0
 10
36.4698
 20
64.0334
 30
0.0
 11
35.669
 21
64.0334
 31
0.0
  0
LINE
  8
0
 62
     0
 10
35.669
 20
64.0334
 30
0.0
 11
35.669
 21
69.8334
 31
0.0
  0
LINE
  8
0
 62
     0
 10
35.669
 20
69.8334
 30
0.0
 11
36.4698
 21
69.8334
 31
0.0
  0
LINE
  8
0
 62
     0
 10
36.4698
 20
69.8334
 30
0.0
 11
36.4698
 21
72.9326
 31
0.0
  0
LINE
  8
0
 62
     0
 10
36.4698
 20
72.9326
 30
0.0
 11
35.669
 21
72.9326
 31
0.0
  0
LINE
  8
0
 62
     0
 10
35.669
 20
72.9326
 30
0.0
 11
35.669
 21
73.9331
 31
0.0
  0
LINE
  8
0
 62
     0
 10
35.669
 20
73.9331
 30
0.0
 11
21.6697
 21
73.9331
 31
0.0
  0
LINE
  8
0
 62
     0
 10
40.7197
 20
73.9331
 30
0.0
 11
40.7197
 21
72.9326
 31
0.0
  0
LINE
  8
0
 62
     0
 10
40.7197
 20
72.9326
 30
0.0
 11
39.9189
 21
72.9326
 31
0.0
  0
LINE
  8
0
 62
     0
 10
39.9189
 20
72.9326
 30
0.0
 11
39.9189
 21
69.8334
 31
0.0
  0
LINE
  8
0
 62
     0
 10
39.9189
 20
69.8334
 30
0.0
 11
40.7197
 21
69.8334
 31
0.0
  0
LINE
  8
0
 62
     0
 10
40.7197
 20
69.8334
 30
0.0
 11
40.7197
 21
64.0334
 31
0.0
  0
LINE
  8
0
 62
     0
 10
40.7197
 20
64.0334
 30
0.0
 11
39.9189
 21
64.0334
 31
0.0
  0
LINE
  8
0
 62
     0
 10
39.9189
 20
64.0334
 30
0.0
 11
39.9189
 21
60.9328
 31
0.0
  0
LINE
  8
0
 62
     0
 10
39.9189
 20
60.9328
 30
0.0
 11
40.7197
 21
60.9328
 31
0.0
  0
LINE
  8
0
 62
     0
 10
40.7197
 20
60.9328
 30
0.0
 11
40.7197
 21
59.9338
 31
0.0
  0
LINE
  8
0
 62
     0
 10
40.7197
 20
59.9338
 30
0.0
 11
54.719
 21
59.9338
 31
0.0
  0
LINE
  8
0
 62
     0
 10
54.719
 20
59.9338
 30
0.0
 11
54.719
 21
60.9328
 31
0.0
  0
LINE
  8
0
 62
     0
 10
54.719
 20
60.9328
 30
0.0
 11
55.5198
 21
60.9328
 31
0.0
  0
LINE
  8
0
 62
     0
 10
55.5198
 20
60.9328
 30
0.0
 11
55.5198
 21
64.0334
 31
0.0
  0
LINE
  8
0
 62
     0
 10
55.5198
 20
64.0334
 30
0.0
 11
54.719
 21
64.0334
 31
0.0
  0
LINE
  8
0
 62
     0
 10
54.719
 20
64.0334
 30
0.0
 11
54.719
 21
69.8334
 31
0.0
  0
LINE
  8
0
 62
     0
 10
54.719
 20
69.8334
 30
0.0
 11
55.5198
 21
69.8334
 31
0.0
  0
LINE
  8
0
 62
     0
 10
55.5198
 20
69.8334
 30
0.0
 11
55.5198
 21
72.9326
 31
0.0
  0
LINE
  8
0
 62
     0
 10
55.5198
 20
72.9326
 30
0.0
 11
54.719
 21
72.9326
 31
0.0
  0
LINE
  8
0
 62
     0
 10
54.719
 20
72.9326
 30
0.0
 11
54.719
 21
73.9331
 31
0.0
  0
LINE
  8
0
 62
     0
 10
54.719
 20
73.9331
 30
0.0
 11
40.7197
 21
73.9331
 31
0.0
  0
LINE
  8
0
 62
     0
 10
59.7697
 20
73.9331
 30
0.0
 11
59.7697
 21
72.9326
 31
0.0
  0
LINE
  8
0
 62
     0
 10
59.7697
 20
72.9326
 30
0.0
 11
58.9689
 21
72.9326
 31
0.0
  0
LINE
  8
0
 62
     0
 10
58.9689
 20
72.9326
 30
0.0
 11
58.9689
 21
69.8334
 31
0.0
  0
LINE
  8
0
 62
     0
 10
58.9689
 20
69.8334
 30
0.0
 11
59.7697
 21
69.8334
 31
0.0
  0
LINE
  8
0
 62
     0
 10
59.7697
 20
69.8334
 30
0.0
 11
59.7697
 21
64.0334
 31
0.0
  0
LINE
  8
0
 62
     0
 10
59.7697
 20
64.0334
 30
0.0
 11
58.9689
 21
64.0334
 31
0.0
  0
LINE
  8
0
 62
     0
 10
58.9689
 20
64.0334
 30
0.0
 11
58.9689
 21
60.9328
 31
0.0
  0
LINE
  8
0
 62
     0
 10
58.9689
 20
60.9328
 30
0.0
 11
59.7697
 21
60.9328
 31
0.0
  0
LINE
  8
0
 62
     0
 10
59.7697
 20
60.9328
 30
0.0
 11
59.7697
 21
59.9338
 31
0.0
  0
LINE
  8
0
 62
     0
 10
59.7697
 20
59.9338
 30
0.0
 11
73.769
 21
59.9338
 31
0.0
  0
LINE
  8
0
 62
     0
 10
73.769
 20
59.9338
 30
0.0
 11
73.769
 21
60.9328
 31
0.0
  0
LINE
  8
0
 62
     0
 10
73.769
 20
60.9328
 30
0.0
 11
74.5698
 21
60.9328
 31
0.0
  0
LINE
  8
0
 62
     0
 10
74.5698
 20
60.9328
 30
0.0
 11
74.5698
 21
64.0334
 31
0.0
  0
LINE
  8
0
 62
     0
 10
74.5698
 20
64.0334
 30
0.0
 11
73.769
 21
64.0334
 31
0.0
  0
LINE
  8
0
 62
     0
 10
73.769
 20
64.0334
 30
0.0
 11
73.769
 21
69.8334
 31
0.0
  0
LINE
  8
0
 62
     0
 10
73.769
 20
69.8334
 30
0.0
 11
74.5698
 21
69.8334
 31
0.0
  0
LINE
  8
0
 62
     0
 10
74.5698
 20
69.8334
 30
0.0
 11
74.5698
 21
72.9326
 31
0.0
  0
LINE
  8
0
 62
     0
 10
74.5698
 20
72.9326
 30
0.0
 11
73.769
 21
72.9326
 31
0.0
  0
LINE
  8
0
 62
     0
 10
73.769
 20
72.9326
 30
0.0
 11
73.769
 21
73.9331
 31
0.0
  0
LINE
  8
0
 62
     0
 10
73.769
 20
73.9331
 30
0.0
 11
59.7697
 21
73.9331
 31
0.0
  0
LINE
  8
0
 62
     0
 10
78.8197
 20
73.9331
 30
0.0
 11
78.8197
 21
72.9326
 31
0.0
  0
LINE
  8
0
 62
     0
 10
78.8197
 20
72.9326
 30
0.0
 11
78.0189
 21
72.9326
 31
0.0
  0
LINE
  8
0
 62
     0
 10
78.0189
 20
72.9326
 30
0.0
 11
78.0189
 21
69.8334
 31
0.0
  0
LINE
  8
0
 62
     0
 10
78.0189
 20
69.8334
 30
0.0
 11
78.8197
 21
69.8334
 31
0.0
  0
LINE
  8
0
 62
     0
 10
78.8197
 20
69.8334
 30
0.0
 11
78.8197
 21
64.0334
 31
0.0
  0
LINE
  8
0
 62
     0
 10
78.8197
 20
64.0334
 30
0.0
 11
78.0189
 21
64.0334
 31
0.0
  0
LINE
  8
0
 62
     0
 10
78.0189
 20
64.0334
 30
0.0
 11
78.0189
 21
60.9328
 31
0.0
  0
LINE
  8
0
 62
     0
 10
78.0189
 20
60.9328
 30
0.0
 11
78.8197
 21
60.9328
 31
0.0
  0
LINE
  8
0
 62
     0
 10
78.8197
 20
60.9328
 30
0.0
 11
78.8197
 21
59.9338
 31
0.0
  0
LINE
  8
0
 62
     0
 10
78.8197
 20
59.9338
 30
0.0
 11
92.819
 21
59.9338
 31
0.0
  0
LINE
  8
0
 62
     0
 10
92.819
 20
59.9338
 30
0.0
 11
92.819
 21
60.9328
 31
0.0
  0
LINE
  8
0
 62
     0
 10
92.819
 20
60.9328
 30
0.0
 11
93.6184
 21
60.9328
 31
0.0
  0
LINE
  8
0
 62
     0
 10
93.6184
 20
60.9328
 30
0.0
 11
93.6184
 21
64.0334
 31
0.0
  0
LINE
  8
0
 62
     0
 10
93.6184
 20
64.0334
 30
0.0
 11
92.819
 21
64.0334
 31
0.0
  0
LINE
  8
0
 62
     0
 10
92.819
 20
64.0334
 30
0.0
 11
92.819
 21
69.8334
 31
0.0
  0
LINE
  8
0
 62
     0
 10
92.819
 20
69.8334
 30
0.0
 11
93.6184
 21
69.8334
 31
0.0
  0
LINE
  8
0
 62
     0
 10
93.6184
 20
69.8334
 30
0.0
 11
93.6184
 21
72.9326
 31
0.0
  0
LINE
  8
0
 62
     0
 10
93.6184
 20
72.9326
 30
0.0
 11
92.819
 21
72.9326
 31
0.0
  0
LINE
  8
0
 62
     0
 10
92.819
 20
72.9326
 30
0.0
 11
92.819
 21
73.9331
 31
0.0
  0
LINE
  8
0
 62
     0
 10
92.819
 20
73.9331
 30
0.0
 11
78.8197
 21
73.9331
 31
0.0
  0
ENDSEC
  0
EOF
