  0
SECTION
  2
HEADER
  9
$ACADVER
  1
AC1009
  9
$FILLMODE
 70
 0
  9
$SPLFRAME
 70
 1
  9
$EXTMIN
 10
0
 20
0
 30
0.0
  9
$EXTMAX
 10
1058.33
 20
1058.33
 30
0.0
  0
ENDSEC
  0
SECTION
  2
TABLES
  0
TABLE
  2
LAYER
 70
1
  0
LAYER
  2
0
 70
     0
 62
     7
  6
CONTINUOUS
  0
ENDTAB
  0
ENDSEC
  0
SECTION
  2
ENTITIES
  0
LINE
  8
0
 62
     0
 10
0.0950846
 20
76.4575
 30
0.0
 11
100.108
 21
76.4575
 31
0.0
  0
LINE
  8
0
 62
     0
 10
100.108
 20
76.4575
 30
0.0
 11
100.108
 21
0.257693
 31
0.0
  0
LINE
  8
0
 62
     0
 10
100.108
 20
0.257693
 30
0.0
 11
0.0950846
 21
0.257693
 31
0.0
  0
LINE
  8
0
 62
     0
 10
0.0950846
 20
0.257693
 30
0.0
 11
0.0950846
 21
76.4575
 31
0.0
  0
LINE
  8
0
 62
     0
 10
7.38216
 20
16.7831
 30
0.0
 11
7.38216
 21
15.7827
 31
0.0
  0
LINE
  8
0
 62
     0
 10
7.38216
 20
15.7827
 30
0.0
 11
6.58153
 21
15.7827
 31
0.0
  0
LINE
  8
0
 62
     0
 10
6.58153
 20
15.7827
 30
0.0
 11
6.58153
 21
12.6848
 31
0.0
  0
LINE
  8
0
 62
     0
 10
6.58153
 20
12.6848
 30
0.0
 11
7.38216
 21
12.6848
 31
0.0
  0
LINE
  8
0
 62
     0
 10
7.38216
 20
12.6848
 30
0.0
 11
7.38216
 21
6.88329
 31
0.0
  0
LINE
  8
0
 62
     0
 10
7.38216
 20
6.88329
 30
0.0
 11
6.58153
 21
6.88329
 31
0.0
  0
LINE
  8
0
 62
     0
 10
6.58153
 20
6.88329
 30
0.0
 11
6.58153
 21
3.78273
 31
0.0
  0
LINE
  8
0
 62
     0
 10
6.58153
 20
3.78273
 30
0.0
 11
7.38216
 21
3.78273
 31
0.0
  0
LINE
  8
0
 62
     0
 10
7.38216
 20
3.78273
 30
0.0
 11
7.38216
 21
2.78364
 31
0.0
  0
LINE
  8
0
 62
     0
 10
7.38216
 20
2.78364
 30
0.0
 11
21.3817
 21
2.78364
 31
0.0
  0
LINE
  8
0
 62
     0
 10
21.3817
 20
2.78364
 30
0.0
 11
21.3817
 21
3.78273
 31
0.0
  0
LINE
  8
0
 62
     0
 10
21.3817
 20
3.78273
 30
0.0
 11
22.1809
 21
3.78273
 31
0.0
  0
LINE
  8
0
 62
     0
 10
22.1809
 20
3.78273
 30
0.0
 11
22.1809
 21
6.88329
 31
0.0
  0
LINE
  8
0
 62
     0
 10
22.1809
 20
6.88329
 30
0.0
 11
21.3817
 21
6.88329
 31
0.0
  0
LINE
  8
0
 62
     0
 10
21.3817
 20
6.88329
 30
0.0
 11
21.3817
 21
12.6848
 31
0.0
  0
LINE
  8
0
 62
     0
 10
21.3817
 20
12.6848
 30
0.0
 11
22.1809
 21
12.6848
 31
0.0
  0
LINE
  8
0
 62
     0
 10
22.1809
 20
12.6848
 30
0.0
 11
22.1809
 21
15.7827
 31
0.0
  0
LINE
  8
0
 62
     0
 10
22.1809
 20
15.7827
 30
0.0
 11
21.3817
 21
15.7827
 31
0.0
  0
LINE
  8
0
 62
     0
 10
21.3817
 20
15.7827
 30
0.0
 11
21.3817
 21
16.7831
 31
0.0
  0
LINE
  8
0
 62
     0
 10
21.3817
 20
16.7831
 30
0.0
 11
7.38216
 21
16.7831
 31
0.0
  0
LINE
  8
0
 62
     0
 10
26.4322
 20
16.7831
 30
0.0
 11
26.4322
 21
15.7827
 31
0.0
  0
LINE
  8
0
 62
     0
 10
26.4322
 20
15.7827
 30
0.0
 11
25.6315
 21
15.7827
 31
0.0
  0
LINE
  8
0
 62
     0
 10
25.6315
 20
15.7827
 30
0.0
 11
25.6315
 21
12.6848
 31
0.0
  0
LINE
  8
0
 62
     0
 10
25.6315
 20
12.6848
 30
0.0
 11
26.4322
 21
12.6848
 31
0.0
  0
LINE
  8
0
 62
     0
 10
26.4322
 20
12.6848
 30
0.0
 11
26.4322
 21
6.88329
 31
0.0
  0
LINE
  8
0
 62
     0
 10
26.4322
 20
6.88329
 30
0.0
 11
25.6315
 21
6.88329
 31
0.0
  0
LINE
  8
0
 62
     0
 10
25.6315
 20
6.88329
 30
0.0
 11
25.6315
 21
3.78273
 31
0.0
  0
LINE
  8
0
 62
     0
 10
25.6315
 20
3.78273
 30
0.0
 11
26.4322
 21
3.78273
 31
0.0
  0
LINE
  8
0
 62
     0
 10
26.4322
 20
3.78273
 30
0.0
 11
26.4322
 21
2.78364
 31
0.0
  0
LINE
  8
0
 62
     0
 10
26.4322
 20
2.78364
 30
0.0
 11
40.4315
 21
2.78364
 31
0.0
  0
LINE
  8
0
 62
     0
 10
40.4315
 20
2.78364
 30
0.0
 11
40.4315
 21
3.78273
 31
0.0
  0
LINE
  8
0
 62
     0
 10
40.4315
 20
3.78273
 30
0.0
 11
41.2309
 21
3.78273
 31
0.0
  0
LINE
  8
0
 62
     0
 10
41.2309
 20
3.78273
 30
0.0
 11
41.2309
 21
6.88329
 31
0.0
  0
LINE
  8
0
 62
     0
 10
41.2309
 20
6.88329
 30
0.0
 11
40.4315
 21
6.88329
 31
0.0
  0
LINE
  8
0
 62
     0
 10
40.4315
 20
6.88329
 30
0.0
 11
40.4315
 21
12.6848
 31
0.0
  0
LINE
  8
0
 62
     0
 10
40.4315
 20
12.6848
 30
0.0
 11
41.2309
 21
12.6848
 31
0.0
  0
LINE
  8
0
 62
     0
 10
41.2309
 20
12.6848
 30
0.0
 11
41.2309
 21
15.7827
 31
0.0
  0
LINE
  8
0
 62
     0
 10
41.2309
 20
15.7827
 30
0.0
 11
40.4315
 21
15.7827
 31
0.0
  0
LINE
  8
0
 62
     0
 10
40.4315
 20
15.7827
 30
0.0
 11
40.4315
 21
16.7831
 31
0.0
  0
LINE
  8
0
 62
     0
 10
40.4315
 20
16.7831
 30
0.0
 11
26.4322
 21
16.7831
 31
0.0
  0
LINE
  8
0
 62
     0
 10
45.4822
 20
16.7831
 30
0.0
 11
45.4822
 21
15.7827
 31
0.0
  0
LINE
  8
0
 62
     0
 10
45.4822
 20
15.7827
 30
0.0
 11
44.6814
 21
15.7827
 31
0.0
  0
LINE
  8
0
 62
     0
 10
44.6814
 20
15.7827
 30
0.0
 11
44.6814
 21
12.6848
 31
0.0
  0
LINE
  8
0
 62
     0
 10
44.6814
 20
12.6848
 30
0.0
 11
45.4822
 21
12.6848
 31
0.0
  0
LINE
  8
0
 62
     0
 10
45.4822
 20
12.6848
 30
0.0
 11
45.4822
 21
6.88329
 31
0.0
  0
LINE
  8
0
 62
     0
 10
45.4822
 20
6.88329
 30
0.0
 11
44.6814
 21
6.88329
 31
0.0
  0
LINE
  8
0
 62
     0
 10
44.6814
 20
6.88329
 30
0.0
 11
44.6814
 21
3.78273
 31
0.0
  0
LINE
  8
0
 62
     0
 10
44.6814
 20
3.78273
 30
0.0
 11
45.4822
 21
3.78273
 31
0.0
  0
LINE
  8
0
 62
     0
 10
45.4822
 20
3.78273
 30
0.0
 11
45.4822
 21
2.78364
 31
0.0
  0
LINE
  8
0
 62
     0
 10
45.4822
 20
2.78364
 30
0.0
 11
59.4815
 21
2.78364
 31
0.0
  0
LINE
  8
0
 62
     0
 10
59.4815
 20
2.78364
 30
0.0
 11
59.4815
 21
3.78273
 31
0.0
  0
LINE
  8
0
 62
     0
 10
59.4815
 20
3.78273
 30
0.0
 11
60.2809
 21
3.78273
 31
0.0
  0
LINE
  8
0
 62
     0
 10
60.2809
 20
3.78273
 30
0.0
 11
60.2809
 21
6.88329
 31
0.0
  0
LINE
  8
0
 62
     0
 10
60.2809
 20
6.88329
 30
0.0
 11
59.4815
 21
6.88329
 31
0.0
  0
LINE
  8
0
 62
     0
 10
59.4815
 20
6.88329
 30
0.0
 11
59.4815
 21
12.6848
 31
0.0
  0
LINE
  8
0
 62
     0
 10
59.4815
 20
12.6848
 30
0.0
 11
60.2809
 21
12.6848
 31
0.0
  0
LINE
  8
0
 62
     0
 10
60.2809
 20
12.6848
 30
0.0
 11
60.2809
 21
15.7827
 31
0.0
  0
LINE
  8
0
 62
     0
 10
60.2809
 20
15.7827
 30
0.0
 11
59.4815
 21
15.7827
 31
0.0
  0
LINE
  8
0
 62
     0
 10
59.4815
 20
15.7827
 30
0.0
 11
59.4815
 21
16.7831
 31
0.0
  0
LINE
  8
0
 62
     0
 10
59.4815
 20
16.7831
 30
0.0
 11
45.4822
 21
16.7831
 31
0.0
  0
LINE
  8
0
 62
     0
 10
2.61965
 20
35.833
 30
0.0
 11
2.61965
 21
34.8327
 31
0.0
  0
LINE
  8
0
 62
     0
 10
2.61965
 20
34.8327
 30
0.0
 11
1.81901
 21
34.8327
 31
0.0
  0
LINE
  8
0
 62
     0
 10
1.81901
 20
34.8327
 30
0.0
 11
1.81901
 21
31.7335
 31
0.0
  0
LINE
  8
0
 62
     0
 10
1.81901
 20
31.7335
 30
0.0
 11
2.61965
 21
31.7335
 31
0.0
  0
LINE
  8
0
 62
     0
 10
2.61965
 20
31.7335
 30
0.0
 11
2.61965
 21
25.9333
 31
0.0
  0
LINE
  8
0
 62
     0
 10
2.61965
 20
25.9333
 30
0.0
 11
1.81901
 21
25.9333
 31
0.0
  0
LINE
  8
0
 62
     0
 10
1.81901
 20
25.9333
 30
0.0
 11
1.81901
 21
22.8327
 31
0.0
  0
LINE
  8
0
 62
     0
 10
1.81901
 20
22.8327
 30
0.0
 11
2.61965
 21
22.8327
 31
0.0
  0
LINE
  8
0
 62
     0
 10
2.61965
 20
22.8327
 30
0.0
 11
2.61965
 21
21.8336
 31
0.0
  0
LINE
  8
0
 62
     0
 10
2.61965
 20
21.8336
 30
0.0
 11
16.6192
 21
21.8336
 31
0.0
  0
LINE
  8
0
 62
     0
 10
16.6192
 20
21.8336
 30
0.0
 11
16.6192
 21
22.8327
 31
0.0
  0
LINE
  8
0
 62
     0
 10
16.6192
 20
22.8327
 30
0.0
 11
17.4198
 21
22.8327
 31
0.0
  0
LINE
  8
0
 62
     0
 10
17.4198
 20
22.8327
 30
0.0
 11
17.4198
 21
25.9333
 31
0.0
  0
LINE
  8
0
 62
     0
 10
17.4198
 20
25.9333
 30
0.0
 11
16.6192
 21
25.9333
 31
0.0
  0
LINE
  8
0
 62
     0
 10
16.6192
 20
25.9333
 30
0.0
 11
16.6192
 21
31.7335
 31
0.0
  0
LINE
  8
0
 62
     0
 10
16.6192
 20
31.7335
 30
0.0
 11
17.4198
 21
31.7335
 31
0.0
  0
LINE
  8
0
 62
     0
 10
17.4198
 20
31.7335
 30
0.0
 11
17.4198
 21
34.8327
 31
0.0
  0
LINE
  8
0
 62
     0
 10
17.4198
 20
34.8327
 30
0.0
 11
16.6192
 21
34.8327
 31
0.0
  0
LINE
  8
0
 62
     0
 10
16.6192
 20
34.8327
 30
0.0
 11
16.6192
 21
35.833
 31
0.0
  0
LINE
  8
0
 62
     0
 10
16.6192
 20
35.833
 30
0.0
 11
2.61965
 21
35.833
 31
0.0
  0
LINE
  8
0
 62
     0
 10
21.6697
 20
35.833
 30
0.0
 11
21.6697
 21
34.8327
 31
0.0
  0
LINE
  8
0
 62
     0
 10
21.6697
 20
34.8327
 30
0.0
 11
20.869
 21
34.8327
 31
0.0
  0
LINE
  8
0
 62
     0
 10
20.869
 20
34.8327
 30
0.0
 11
20.869
 21
31.7335
 31
0.0
  0
LINE
  8
0
 62
     0
 10
20.869
 20
31.7335
 30
0.0
 11
21.6697
 21
31.7335
 31
0.0
  0
LINE
  8
0
 62
     0
 10
21.6697
 20
31.7335
 30
0.0
 11
21.6697
 21
25.9333
 31
0.0
  0
LINE
  8
0
 62
     0
 10
21.6697
 20
25.9333
 30
0.0
 11
20.869
 21
25.9333
 31
0.0
  0
LINE
  8
0
 62
     0
 10
20.869
 20
25.9333
 30
0.0
 11
20.869
 21
22.8327
 31
0.0
  0
LINE
  8
0
 62
     0
 10
20.869
 20
22.8327
 30
0.0
 11
21.6697
 21
22.8327
 31
0.0
  0
LINE
  8
0
 62
     0
 10
21.6697
 20
22.8327
 30
0.0
 11
21.6697
 21
21.8336
 31
0.0
  0
LINE
  8
0
 62
     0
 10
21.6697
 20
21.8336
 30
0.0
 11
35.669
 21
21.8336
 31
0.0
  0
LINE
  8
0
 62
     0
 10
35.669
 20
21.8336
 30
0.0
 11
35.669
 21
22.8327
 31
0.0
  0
LINE
  8
0
 62
     0
 10
35.669
 20
22.8327
 30
0.0
 11
36.4698
 21
22.8327
 31
0.0
  0
LINE
  8
0
 62
     0
 10
36.4698
 20
22.8327
 30
0.0
 11
36.4698
 21
25.9333
 31
0.0
  0
LINE
  8
0
 62
     0
 10
36.4698
 20
25.9333
 30
0.0
 11
35.669
 21
25.9333
 31
0.0
  0
LINE
  8
0
 62
     0
 10
35.669
 20
25.9333
 30
0.0
 11
35.669
 21
31.7335
 31
0.0
  0
LINE
  8
0
 62
     0
 10
35.669
 20
31.7335
 30
0.0
 11
36.4698
 21
31.7335
 31
0.0
  0
LINE
  8
0
 62
     0
 10
36.4698
 20
31.7335
 30
0.0
 11
36.4698
 21
34.8327
 31
0.0
  0
LINE
  8
0
 62
     0
 10
36.4698
 20
34.8327
 30
0.0
 11
35.669
 21
34.8327
 31
0.0
  0
LINE
  8
0
 62
     0
 10
35.669
 20
34.8327
 30
0.0
 11
35.669
 21
35.833
 31
0.0
  0
LINE
  8
0
 62
     0
 10
35.669
 20
35.833
 30
0.0
 11
21.6697
 21
35.833
 31
0.0
  0
LINE
  8
0
 62
     0
 10
40.7197
 20
35.833
 30
0.0
 11
40.7197
 21
34.8327
 31
0.0
  0
LINE
  8
0
 62
     0
 10
40.7197
 20
34.8327
 30
0.0
 11
39.9189
 21
34.8327
 31
0.0
  0
LINE
  8
0
 62
     0
 10
39.9189
 20
34.8327
 30
0.0
 11
39.9189
 21
31.7335
 31
0.0
  0
LINE
  8
0
 62
     0
 10
39.9189
 20
31.7335
 30
0.0
 11
40.7197
 21
31.7335
 31
0.0
  0
LINE
  8
0
 62
     0
 10
40.7197
 20
31.7335
 30
0.0
 11
40.7197
 21
25.9333
 31
0.0
  0
LINE
  8
0
 62
     0
 10
40.7197
 20
25.9333
 30
0.0
 11
39.9189
 21
25.9333
 31
0.0
  0
LINE
  8
0
 62
     0
 10
39.9189
 20
25.9333
 30
0.0
 11
39.9189
 21
22.8327
 31
0.0
  0
LINE
  8
0
 62
     0
 10
39.9189
 20
22.8327
 30
0.0
 11
40.7197
 21
22.8327
 31
0.0
  0
LINE
  8
0
 62
     0
 10
40.7197
 20
22.8327
 30
0.0
 11
40.7197
 21
21.8336
 31
0.0
  0
LINE
  8
0
 62
     0
 10
40.7197
 20
21.8336
 30
0.0
 11
54.719
 21
21.8336
 31
0.0
  0
LINE
  8
0
 62
     0
 10
54.719
 20
21.8336
 30
0.0
 11
54.719
 21
22.8327
 31
0.0
  0
LINE
  8
0
 62
     0
 10
54.719
 20
22.8327
 30
0.0
 11
55.5198
 21
22.8327
 31
0.0
  0
LINE
  8
0
 62
     0
 10
55.5198
 20
22.8327
 30
0.0
 11
55.5198
 21
25.9333
 31
0.0
  0
LINE
  8
0
 62
     0
 10
55.5198
 20
25.9333
 30
0.0
 11
54.719
 21
25.9333
 31
0.0
  0
LINE
  8
0
 62
     0
 10
54.719
 20
25.9333
 30
0.0
 11
54.719
 21
31.7335
 31
0.0
  0
LINE
  8
0
 62
     0
 10
54.719
 20
31.7335
 30
0.0
 11
55.5198
 21
31.7335
 31
0.0
  0
LINE
  8
0
 62
     0
 10
55.5198
 20
31.7335
 30
0.0
 11
55.5198
 21
34.8327
 31
0.0
  0
LINE
  8
0
 62
     0
 10
55.5198
 20
34.8327
 30
0.0
 11
54.719
 21
34.8327
 31
0.0
  0
LINE
  8
0
 62
     0
 10
54.719
 20
34.8327
 30
0.0
 11
54.719
 21
35.833
 31
0.0
  0
LINE
  8
0
 62
     0
 10
54.719
 20
35.833
 30
0.0
 11
40.7197
 21
35.833
 31
0.0
  0
LINE
  8
0
 62
     0
 10
12.1447
 20
54.8831
 30
0.0
 11
12.1447
 21
53.8826
 31
0.0
  0
LINE
  8
0
 62
     0
 10
12.1447
 20
53.8826
 30
0.0
 11
11.344
 21
53.8826
 31
0.0
  0
LINE
  8
0
 62
     0
 10
11.344
 20
53.8826
 30
0.0
 11
11.344
 21
50.7834
 31
0.0
  0
LINE
  8
0
 62
     0
 10
11.344
 20
50.7834
 30
0.0
 11
12.1447
 21
50.7834
 31
0.0
  0
LINE
  8
0
 62
     0
 10
12.1447
 20
50.7834
 30
0.0
 11
12.1447
 21
44.9834
 31
0.0
  0
LINE
  8
0
 62
     0
 10
12.1447
 20
44.9834
 30
0.0
 11
11.344
 21
44.9834
 31
0.0
  0
LINE
  8
0
 62
     0
 10
11.344
 20
44.9834
 30
0.0
 11
11.344
 21
41.8828
 31
0.0
  0
LINE
  8
0
 62
     0
 10
11.344
 20
41.8828
 30
0.0
 11
12.1447
 21
41.8828
 31
0.0
  0
LINE
  8
0
 62
     0
 10
12.1447
 20
41.8828
 30
0.0
 11
12.1447
 21
40.8838
 31
0.0
  0
LINE
  8
0
 62
     0
 10
12.1447
 20
40.8838
 30
0.0
 11
26.1441
 21
40.8838
 31
0.0
  0
LINE
  8
0
 62
     0
 10
26.1441
 20
40.8838
 30
0.0
 11
26.1441
 21
41.8828
 31
0.0
  0
LINE
  8
0
 62
     0
 10
26.1441
 20
41.8828
 30
0.0
 11
26.9448
 21
41.8828
 31
0.0
  0
LINE
  8
0
 62
     0
 10
26.9448
 20
41.8828
 30
0.0
 11
26.9448
 21
44.9834
 31
0.0
  0
LINE
  8
0
 62
     0
 10
26.9448
 20
44.9834
 30
0.0
 11
26.1441
 21
44.9834
 31
0.0
  0
LINE
  8
0
 62
     0
 10
26.1441
 20
44.9834
 30
0.0
 11
26.1441
 21
50.7834
 31
0.0
  0
LINE
  8
0
 62
     0
 10
26.1441
 20
50.7834
 30
0.0
 11
26.9448
 21
50.7834
 31
0.0
  0
LINE
  8
0
 62
     0
 10
26.9448
 20
50.7834
 30
0.0
 11
26.9448
 21
53.8826
 31
0.0
  0
LINE
  8
0
 62
     0
 10
26.9448
 20
53.8826
 30
0.0
 11
26.1441
 21
53.8826
 31
0.0
  0
LINE
  8
0
 62
     0
 10
26.1441
 20
53.8826
 30
0.0
 11
26.1441
 21
54.8831
 31
0.0
  0
LINE
  8
0
 62
     0
 10
26.1441
 20
54.8831
 30
0.0
 11
12.1447
 21
54.8831
 31
0.0
  0
LINE
  8
0
 62
     0
 10
31.1947
 20
54.8831
 30
0.0
 11
31.1947
 21
53.8826
 31
0.0
  0
LINE
  8
0
 62
     0
 10
31.1947
 20
53.8826
 30
0.0
 11
30.394
 21
53.8826
 31
0.0
  0
LINE
  8
0
 62
     0
 10
30.394
 20
53.8826
 30
0.0
 11
30.394
 21
50.7834
 31
0.0
  0
LINE
  8
0
 62
     0
 10
30.394
 20
50.7834
 30
0.0
 11
31.1947
 21
50.7834
 31
0.0
  0
LINE
  8
0
 62
     0
 10
31.1947
 20
50.7834
 30
0.0
 11
31.1947
 21
44.9834
 31
0.0
  0
LINE
  8
0
 62
     0
 10
31.1947
 20
44.9834
 30
0.0
 11
30.394
 21
44.9834
 31
0.0
  0
LINE
  8
0
 62
     0
 10
30.394
 20
44.9834
 30
0.0
 11
30.394
 21
41.8828
 31
0.0
  0
LINE
  8
0
 62
     0
 10
30.394
 20
41.8828
 30
0.0
 11
31.1947
 21
41.8828
 31
0.0
  0
LINE
  8
0
 62
     0
 10
31.1947
 20
41.8828
 30
0.0
 11
31.1947
 21
40.8838
 31
0.0
  0
LINE
  8
0
 62
     0
 10
31.1947
 20
40.8838
 30
0.0
 11
45.194
 21
40.8838
 31
0.0
  0
LINE
  8
0
 62
     0
 10
45.194
 20
40.8838
 30
0.0
 11
45.194
 21
41.8828
 31
0.0
  0
LINE
  8
0
 62
     0
 10
45.194
 20
41.8828
 30
0.0
 11
45.9948
 21
41.8828
 31
0.0
  0
LINE
  8
0
 62
     0
 10
45.9948
 20
41.8828
 30
0.0
 11
45.9948
 21
44.9834
 31
0.0
  0
LINE
  8
0
 62
     0
 10
45.9948
 20
44.9834
 30
0.0
 11
45.194
 21
44.9834
 31
0.0
  0
LINE
  8
0
 62
     0
 10
45.194
 20
44.9834
 30
0.0
 11
45.194
 21
50.7834
 31
0.0
  0
LINE
  8
0
 62
     0
 10
45.194
 20
50.7834
 30
0.0
 11
45.9948
 21
50.7834
 31
0.0
  0
LINE
  8
0
 62
     0
 10
45.9948
 20
50.7834
 30
0.0
 11
45.9948
 21
53.8826
 31
0.0
  0
LINE
  8
0
 62
     0
 10
45.9948
 20
53.8826
 30
0.0
 11
45.194
 21
53.8826
 31
0.0
  0
LINE
  8
0
 62
     0
 10
45.194
 20
53.8826
 30
0.0
 11
45.194
 21
54.8831
 31
0.0
  0
LINE
  8
0
 62
     0
 10
45.194
 20
54.8831
 30
0.0
 11
31.1947
 21
54.8831
 31
0.0
  0
LINE
  8
0
 62
     0
 10
50.2447
 20
54.8831
 30
0.0
 11
50.2447
 21
53.8826
 31
0.0
  0
LINE
  8
0
 62
     0
 10
50.2447
 20
53.8826
 30
0.0
 11
49.4439
 21
53.8826
 31
0.0
  0
LINE
  8
0
 62
     0
 10
49.4439
 20
53.8826
 30
0.0
 11
49.4439
 21
50.7834
 31
0.0
  0
LINE
  8
0
 62
     0
 10
49.4439
 20
50.7834
 30
0.0
 11
50.2447
 21
50.7834
 31
0.0
  0
LINE
  8
0
 62
     0
 10
50.2447
 20
50.7834
 30
0.0
 11
50.2447
 21
44.9834
 31
0.0
  0
LINE
  8
0
 62
     0
 10
50.2447
 20
44.9834
 30
0.0
 11
49.4439
 21
44.9834
 31
0.0
  0
LINE
  8
0
 62
     0
 10
49.4439
 20
44.9834
 30
0.0
 11
49.4439
 21
41.8828
 31
0.0
  0
LINE
  8
0
 62
     0
 10
49.4439
 20
41.8828
 30
0.0
 11
50.2447
 21
41.8828
 31
0.0
  0
LINE
  8
0
 62
     0
 10
50.2447
 20
41.8828
 30
0.0
 11
50.2447
 21
40.8838
 31
0.0
  0
LINE
  8
0
 62
     0
 10
50.2447
 20
40.8838
 30
0.0
 11
64.244
 21
40.8838
 31
0.0
  0
LINE
  8
0
 62
     0
 10
64.244
 20
40.8838
 30
0.0
 11
64.244
 21
41.8828
 31
0.0
  0
LINE
  8
0
 62
     0
 10
64.244
 20
41.8828
 30
0.0
 11
65.0448
 21
41.8828
 31
0.0
  0
LINE
  8
0
 62
     0
 10
65.0448
 20
41.8828
 30
0.0
 11
65.0448
 21
44.9834
 31
0.0
  0
LINE
  8
0
 62
     0
 10
65.0448
 20
44.9834
 30
0.0
 11
64.244
 21
44.9834
 31
0.0
  0
LINE
  8
0
 62
     0
 10
64.244
 20
44.9834
 30
0.0
 11
64.244
 21
50.7834
 31
0.0
  0
LINE
  8
0
 62
     0
 10
64.244
 20
50.7834
 30
0.0
 11
65.0448
 21
50.7834
 31
0.0
  0
LINE
  8
0
 62
     0
 10
65.0448
 20
50.7834
 30
0.0
 11
65.0448
 21
53.8826
 31
0.0
  0
LINE
  8
0
 62
     0
 10
65.0448
 20
53.8826
 30
0.0
 11
64.244
 21
53.8826
 31
0.0
  0
LINE
  8
0
 62
     0
 10
64.244
 20
53.8826
 30
0.0
 11
64.244
 21
54.8831
 31
0.0
  0
LINE
  8
0
 62
     0
 10
64.244
 20
54.8831
 30
0.0
 11
50.2447
 21
54.8831
 31
0.0
  0
LINE
  8
0
 62
     0
 10
69.2947
 20
54.8831
 30
0.0
 11
69.2947
 21
53.8826
 31
0.0
  0
LINE
  8
0
 62
     0
 10
69.2947
 20
53.8826
 30
0.0
 11
68.4939
 21
53.8826
 31
0.0
  0
LINE
  8
0
 62
     0
 10
68.4939
 20
53.8826
 30
0.0
 11
68.4939
 21
50.7834
 31
0.0
  0
LINE
  8
0
 62
     0
 10
68.4939
 20
50.7834
 30
0.0
 11
69.2947
 21
50.7834
 31
0.0
  0
LINE
  8
0
 62
     0
 10
69.2947
 20
50.7834
 30
0.0
 11
69.2947
 21
44.9834
 31
0.0
  0
LINE
  8
0
 62
     0
 10
69.2947
 20
44.9834
 30
0.0
 11
68.4939
 21
44.9834
 31
0.0
  0
LINE
  8
0
 62
     0
 10
68.4939
 20
44.9834
 30
0.0
 11
68.4939
 21
41.8828
 31
0.0
  0
LINE
  8
0
 62
     0
 10
68.4939
 20
41.8828
 30
0.0
 11
69.2947
 21
41.8828
 31
0.0
  0
LINE
  8
0
 62
     0
 10
69.2947
 20
41.8828
 30
0.0
 11
69.2947
 21
40.8838
 31
0.0
  0
LINE
  8
0
 62
     0
 10
69.2947
 20
40.8838
 30
0.0
 11
83.294
 21
40.8838
 31
0.0
  0
LINE
  8
0
 62
     0
 10
83.294
 20
40.8838
 30
0.0
 11
83.294
 21
41.8828
 31
0.0
  0
LINE
  8
0
 62
     0
 10
83.294
 20
41.8828
 30
0.0
 11
84.0948
 21
41.8828
 31
0.0
  0
LINE
  8
0
 62
     0
 10
84.0948
 20
41.8828
 30
0.0
 11
84.0948
 21
44.9834
 31
0.0
  0
LINE
  8
0
 62
     0
 10
84.0948
 20
44.9834
 30
0.0
 11
83.294
 21
44.9834
 31
0.0
  0
LINE
  8
0
 62
     0
 10
83.294
 20
44.9834
 30
0.0
 11
83.294
 21
50.7834
 31
0.0
  0
LINE
  8
0
 62
     0
 10
83.294
 20
50.7834
 30
0.0
 11
84.0948
 21
50.7834
 31
0.0
  0
LINE
  8
0
 62
     0
 10
84.0948
 20
50.7834
 30
0.0
 11
84.0948
 21
53.8826
 31
0.0
  0
LINE
  8
0
 62
     0
 10
84.0948
 20
53.8826
 30
0.0
 11
83.294
 21
53.8826
 31
0.0
  0
LINE
  8
0
 62
     0
 10
83.294
 20
53.8826
 30
0.0
 11
83.294
 21
54.8831
 31
0.0
  0
LINE
  8
0
 62
     0
 10
83.294
 20
54.8831
 30
0.0
 11
69.2947
 21
54.8831
 31
0.0
  0
LINE
  8
0
 62
     0
 10
7.38216
 20
73.9331
 30
0.0
 11
7.38216
 21
72.9326
 31
0.0
  0
LINE
  8
0
 62
     0
 10
7.38216
 20
72.9326
 30
0.0
 11
6.58153
 21
72.9326
 31
0.0
  0
LINE
  8
0
 62
     0
 10
6.58153
 20
72.9326
 30
0.0
 11
6.58153
 21
69.8334
 31
0.0
  0
LINE
  8
0
 62
     0
 10
6.58153
 20
69.8334
 30
0.0
 11
7.38216
 21
69.8334
 31
0.0
  0
LINE
  8
0
 62
     0
 10
7.38216
 20
69.8334
 30
0.0
 11
7.38216
 21
64.0334
 31
0.0
  0
LINE
  8
0
 62
     0
 10
7.38216
 20
64.0334
 30
0.0
 11
6.58153
 21
64.0334
 31
0.0
  0
LINE
  8
0
 62
     0
 10
6.58153
 20
64.0334
 30
0.0
 11
6.58153
 21
60.9328
 31
0.0
  0
LINE
  8
0
 62
     0
 10
6.58153
 20
60.9328
 30
0.0
 11
7.38216
 21
60.9328
 31
0.0
  0
LINE
  8
0
 62
     0
 10
7.38216
 20
60.9328
 30
0.0
 11
7.38216
 21
59.9338
 31
0.0
  0
LINE
  8
0
 62
     0
 10
7.38216
 20
59.9338
 30
0.0
 11
21.3817
 21
59.9338
 31
0.0
  0
LINE
  8
0
 62
     0
 10
21.3817
 20
59.9338
 30
0.0
 11
21.3817
 21
60.9328
 31
0.0
  0
LINE
  8
0
 62
     0
 10
21.3817
 20
60.9328
 30
0.0
 11
22.1809
 21
60.9328
 31
0.0
  0
LINE
  8
0
 62
     0
 10
22.1809
 20
60.9328
 30
0.0
 11
22.1809
 21
64.0334
 31
0.0
  0
LINE
  8
0
 62
     0
 10
22.1809
 20
64.0334
 30
0.0
 11
21.3817
 21
64.0334
 31
0.0
  0
LINE
  8
0
 62
     0
 10
21.3817
 20
64.0334
 30
0.0
 11
21.3817
 21
69.8334
 31
0.0
  0
LINE
  8
0
 62
     0
 10
21.3817
 20
69.8334
 30
0.0
 11
22.1809
 21
69.8334
 31
0.0
  0
LINE
  8
0
 62
     0
 10
22.1809
 20
69.8334
 30
0.0
 11
22.1809
 21
72.9326
 31
0.0
  0
LINE
  8
0
 62
     0
 10
22.1809
 20
72.9326
 30
0.0
 11
21.3817
 21
72.9326
 31
0.0
  0
LINE
  8
0
 62
     0
 10
21.3817
 20
72.9326
 30
0.0
 11
21.3817
 21
73.9331
 31
0.0
  0
LINE
  8
0
 62
     0
 10
21.3817
 20
73.9331
 30
0.0
 11
7.38216
 21
73.9331
 31
0.0
  0
LINE
  8
0
 62
     0
 10
26.4322
 20
73.9331
 30
0.0
 11
26.4322
 21
72.9326
 31
0.0
  0
LINE
  8
0
 62
     0
 10
26.4322
 20
72.9326
 30
0.0
 11
25.6315
 21
72.9326
 31
0.0
  0
LINE
  8
0
 62
     0
 10
25.6315
 20
72.9326
 30
0.0
 11
25.6315
 21
69.8334
 31
0.0
  0
LINE
  8
0
 62
     0
 10
25.6315
 20
69.8334
 30
0.0
 11
26.4322
 21
69.8334
 31
0.0
  0
LINE
  8
0
 62
     0
 10
26.4322
 20
69.8334
 30
0.0
 11
26.4322
 21
64.0334
 31
0.0
  0
LINE
  8
0
 62
     0
 10
26.4322
 20
64.0334
 30
0.0
 11
25.6315
 21
64.0334
 31
0.0
  0
LINE
  8
0
 62
     0
 10
25.6315
 20
64.0334
 30
0.0
 11
25.6315
 21
60.9328
 31
0.0
  0
LINE
  8
0
 62
     0
 10
25.6315
 20
60.9328
 30
0.0
 11
26.4322
 21
60.9328
 31
0.0
  0
LINE
  8
0
 62
     0
 10
26.4322
 20
60.9328
 30
0.0
 11
26.4322
 21
59.9338
 31
0.0
  0
LINE
  8
0
 62
     0
 10
26.4322
 20
59.9338
 30
0.0
 11
40.4315
 21
59.9338
 31
0.0
  0
LINE
  8
0
 62
     0
 10
40.4315
 20
59.9338
 30
0.0
 11
40.4315
 21
60.9328
 31
0.0
  0
LINE
  8
0
 62
     0
 10
40.4315
 20
60.9328
 30
0.0
 11
41.2309
 21
60.9328
 31
0.0
  0
LINE
  8
0
 62
     0
 10
41.2309
 20
60.9328
 30
0.0
 11
41.2309
 21
64.0334
 31
0.0
  0
LINE
  8
0
 62
     0
 10
41.2309
 20
64.0334
 30
0.0
 11
40.4315
 21
64.0334
 31
0.0
  0
LINE
  8
0
 62
     0
 10
40.4315
 20
64.0334
 30
0.0
 11
40.4315
 21
69.8334
 31
0.0
  0
LINE
  8
0
 62
     0
 10
40.4315
 20
69.8334
 30
0.0
 11
41.2309
 21
69.8334
 31
0.0
  0
LINE
  8
0
 62
     0
 10
41.2309
 20
69.8334
 30
0.0
 11
41.2309
 21
72.9326
 31
0.0
  0
LINE
  8
0
 62
     0
 10
41.2309
 20
72.9326
 30
0.0
 11
40.4315
 21
72.9326
 31
0.0
  0
LINE
  8
0
 62
     0
 10
40.4315
 20
72.9326
 30
0.0
 11
40.4315
 21
73.9331
 31
0.0
  0
LINE
  8
0
 62
     0
 10
40.4315
 20
73.9331
 30
0.0
 11
26.4322
 21
73.9331
 31
0.0
  0
LINE
  8
0
 62
     0
 10
45.4822
 20
73.9331
 30
0.0
 11
45.4822
 21
72.9326
 31
0.0
  0
LINE
  8
0
 62
     0
 10
45.4822
 20
72.9326
 30
0.0
 11
44.6814
 21
72.9326
 31
0.0
  0
LINE
  8
0
 62
     0
 10
44.6814
 20
72.9326
 30
0.0
 11
44.6814
 21
69.8334
 31
0.0
  0
LINE
  8
0
 62
     0
 10
44.6814
 20
69.8334
 30
0.0
 11
45.4822
 21
69.8334
 31
0.0
  0
LINE
  8
0
 62
     0
 10
45.4822
 20
69.8334
 30
0.0
 11
45.4822
 21
64.0334
 31
0.0
  0
LINE
  8
0
 62
     0
 10
45.4822
 20
64.0334
 30
0.0
 11
44.6814
 21
64.0334
 31
0.0
  0
LINE
  8
0
 62
     0
 10
44.6814
 20
64.0334
 30
0.0
 11
44.6814
 21
60.9328
 31
0.0
  0
LINE
  8
0
 62
     0
 10
44.6814
 20
60.9328
 30
0.0
 11
45.4822
 21
60.9328
 31
0.0
  0
LINE
  8
0
 62
     0
 10
45.4822
 20
60.9328
 30
0.0
 11
45.4822
 21
59.9338
 31
0.0
  0
LINE
  8
0
 62
     0
 10
45.4822
 20
59.9338
 30
0.0
 11
59.4815
 21
59.9338
 31
0.0
  0
LINE
  8
0
 62
     0
 10
59.4815
 20
59.9338
 30
0.0
 11
59.4815
 21
60.9328
 31
0.0
  0
LINE
  8
0
 62
     0
 10
59.4815
 20
60.9328
 30
0.0
 11
60.2809
 21
60.9328
 31
0.0
  0
LINE
  8
0
 62
     0
 10
60.2809
 20
60.9328
 30
0.0
 11
60.2809
 21
64.0334
 31
0.0
  0
LINE
  8
0
 62
     0
 10
60.2809
 20
64.0334
 30
0.0
 11
59.4815
 21
64.0334
 31
0.0
  0
LINE
  8
0
 62
     0
 10
59.4815
 20
64.0334
 30
0.0
 11
59.4815
 21
69.8334
 31
0.0
  0
LINE
  8
0
 62
     0
 10
59.4815
 20
69.8334
 30
0.0
 11
60.2809
 21
69.8334
 31
0.0
  0
LINE
  8
0
 62
     0
 10
60.2809
 20
69.8334
 30
0.0
 11
60.2809
 21
72.9326
 31
0.0
  0
LINE
  8
0
 62
     0
 10
60.2809
 20
72.9326
 30
0.0
 11
59.4815
 21
72.9326
 31
0.0
  0
LINE
  8
0
 62
     0
 10
59.4815
 20
72.9326
 30
0.0
 11
59.4815
 21
73.9331
 31
0.0
  0
LINE
  8
0
 62
     0
 10
59.4815
 20
73.9331
 30
0.0
 11
45.4822
 21
73.9331
 31
0.0
  0
LINE
  8
0
 62
     0
 10
64.5322
 20
73.9331
 30
0.0
 11
64.5322
 21
72.9326
 31
0.0
  0
LINE
  8
0
 62
     0
 10
64.5322
 20
72.9326
 30
0.0
 11
63.7314
 21
72.9326
 31
0.0
  0
LINE
  8
0
 62
     0
 10
63.7314
 20
72.9326
 30
0.0
 11
63.7314
 21
69.8334
 31
0.0
  0
LINE
  8
0
 62
     0
 10
63.7314
 20
69.8334
 30
0.0
 11
64.5322
 21
69.8334
 31
0.0
  0
LINE
  8
0
 62
     0
 10
64.5322
 20
69.8334
 30
0.0
 11
64.5322
 21
64.0334
 31
0.0
  0
LINE
  8
0
 62
     0
 10
64.5322
 20
64.0334
 30
0.0
 11
63.7314
 21
64.0334
 31
0.0
  0
LINE
  8
0
 62
     0
 10
63.7314
 20
64.0334
 30
0.0
 11
63.7314
 21
60.9328
 31
0.0
  0
LINE
  8
0
 62
     0
 10
63.7314
 20
60.9328
 30
0.0
 11
64.5322
 21
60.9328
 31
0.0
  0
LINE
  8
0
 62
     0
 10
64.5322
 20
60.9328
 30
0.0
 11
64.5322
 21
59.9338
 31
0.0
  0
LINE
  8
0
 62
     0
 10
64.5322
 20
59.9338
 30
0.0
 11
78.5315
 21
59.9338
 31
0.0
  0
LINE
  8
0
 62
     0
 10
78.5315
 20
59.9338
 30
0.0
 11
78.5315
 21
60.9328
 31
0.0
  0
LINE
  8
0
 62
     0
 10
78.5315
 20
60.9328
 30
0.0
 11
79.3309
 21
60.9328
 31
0.0
  0
LINE
  8
0
 62
     0
 10
79.3309
 20
60.9328
 30
0.0
 11
79.3309
 21
64.0334
 31
0.0
  0
LINE
  8
0
 62
     0
 10
79.3309
 20
64.0334
 30
0.0
 11
78.5315
 21
64.0334
 31
0.0
  0
LINE
  8
0
 62
     0
 10
78.5315
 20
64.0334
 30
0.0
 11
78.5315
 21
69.8334
 31
0.0
  0
LINE
  8
0
 62
     0
 10
78.5315
 20
69.8334
 30
0.0
 11
79.3309
 21
69.8334
 31
0.0
  0
LINE
  8
0
 62
     0
 10
79.3309
 20
69.8334
 30
0.0
 11
79.3309
 21
72.9326
 31
0.0
  0
LINE
  8
0
 62
     0
 10
79.3309
 20
72.9326
 30
0.0
 11
78.5315
 21
72.9326
 31
0.0
  0
LINE
  8
0
 62
     0
 10
78.5315
 20
72.9326
 30
0.0
 11
78.5315
 21
73.9331
 31
0.0
  0
LINE
  8
0
 62
     0
 10
78.5315
 20
73.9331
 30
0.0
 11
64.5322
 21
73.9331
 31
0.0
  0
LINE
  8
0
 62
     0
 10
83.5822
 20
73.9331
 30
0.0
 11
83.5822
 21
72.9326
 31
0.0
  0
LINE
  8
0
 62
     0
 10
83.5822
 20
72.9326
 30
0.0
 11
82.7814
 21
72.9326
 31
0.0
  0
LINE
  8
0
 62
     0
 10
82.7814
 20
72.9326
 30
0.0
 11
82.7814
 21
69.8334
 31
0.0
  0
LINE
  8
0
 62
     0
 10
82.7814
 20
69.8334
 30
0.0
 11
83.5822
 21
69.8334
 31
0.0
  0
LINE
  8
0
 62
     0
 10
83.5822
 20
69.8334
 30
0.0
 11
83.5822
 21
64.0334
 31
0.0
  0
LINE
  8
0
 62
     0
 10
83.5822
 20
64.0334
 30
0.0
 11
82.7814
 21
64.0334
 31
0.0
  0
LINE
  8
0
 62
     0
 10
82.7814
 20
64.0334
 30
0.0
 11
82.7814
 21
60.9328
 31
0.0
  0
LINE
  8
0
 62
     0
 10
82.7814
 20
60.9328
 30
0.0
 11
83.5822
 21
60.9328
 31
0.0
  0
LINE
  8
0
 62
     0
 10
83.5822
 20
60.9328
 30
0.0
 11
83.5822
 21
59.9338
 31
0.0
  0
LINE
  8
0
 62
     0
 10
83.5822
 20
59.9338
 30
0.0
 11
97.5815
 21
59.9338
 31
0.0
  0
LINE
  8
0
 62
     0
 10
97.5815
 20
59.9338
 30
0.0
 11
97.5815
 21
60.9328
 31
0.0
  0
LINE
  8
0
 62
     0
 10
97.5815
 20
60.9328
 30
0.0
 11
98.3809
 21
60.9328
 31
0.0
  0
LINE
  8
0
 62
     0
 10
98.3809
 20
60.9328
 30
0.0
 11
98.3809
 21
64.0334
 31
0.0
  0
LINE
  8
0
 62
     0
 10
98.3809
 20
64.0334
 30
0.0
 11
97.5815
 21
64.0334
 31
0.0
  0
LINE
  8
0
 62
     0
 10
97.5815
 20
64.0334
 30
0.0
 11
97.5815
 21
69.8334
 31
0.0
  0
LINE
  8
0
 62
     0
 10
97.5815
 20
69.8334
 30
0.0
 11
98.3809
 21
69.8334
 31
0.0
  0
LINE
  8
0
 62
     0
 10
98.3809
 20
69.8334
 30
0.0
 11
98.3809
 21
72.9326
 31
0.0
  0
LINE
  8
0
 62
     0
 10
98.3809
 20
72.9326
 30
0.0
 11
97.5815
 21
72.9326
 31
0.0
  0
LINE
  8
0
 62
     0
 10
97.5815
 20
72.9326
 30
0.0
 11
97.5815
 21
73.9331
 31
0.0
  0
LINE
  8
0
 62
     0
 10
97.5815
 20
73.9331
 30
0.0
 11
83.5822
 21
73.9331
 31
0.0
  0
ENDSEC
  0
EOF
