  0
SECTION
  2
HEADER
  9
$ACADVER
  1
AC1009
  9
$FILLMODE
 70
 0
  9
$SPLFRAME
 70
 1
  9
$EXTMIN
 10
0
 20
0
 30
0.0
  9
$EXTMAX
 10
1058.33
 20
1058.33
 30
0.0
  0
ENDSEC
  0
SECTION
  2
TABLES
  0
TABLE
  2
LAYER
 70
1
  0
LAYER
  2
0
 70
     0
 62
     7
  6
CONTINUOUS
  0
ENDTAB
  0
ENDSEC
  0
SECTION
  2
ENTITIES
  0
LINE
  8
0
 62
     0
 10
0.0950846
 20
38.3575
 30
0.0
 11
100.108
 21
38.3575
 31
0.0
  0
LINE
  8
0
 62
     0
 10
100.108
 20
38.3575
 30
0.0
 11
100.108
 21
0.257693
 31
0.0
  0
LINE
  8
0
 62
     0
 10
100.108
 20
0.257693
 30
0.0
 11
0.0950846
 21
0.257693
 31
0.0
  0
LINE
  8
0
 62
     0
 10
0.0950846
 20
0.257693
 30
0.0
 11
0.0950846
 21
38.3575
 31
0.0
  0
LINE
  8
0
 62
     0
 10
12.1447
 20
16.7831
 30
0.0
 11
12.1447
 21
15.7827
 31
0.0
  0
LINE
  8
0
 62
     0
 10
12.1447
 20
15.7827
 30
0.0
 11
11.344
 21
15.7827
 31
0.0
  0
LINE
  8
0
 62
     0
 10
11.344
 20
15.7827
 30
0.0
 11
11.344
 21
12.6835
 31
0.0
  0
LINE
  8
0
 62
     0
 10
11.344
 20
12.6835
 30
0.0
 11
12.1447
 21
12.6835
 31
0.0
  0
LINE
  8
0
 62
     0
 10
12.1447
 20
12.6835
 30
0.0
 11
12.1447
 21
6.88329
 31
0.0
  0
LINE
  8
0
 62
     0
 10
12.1447
 20
6.88329
 30
0.0
 11
11.344
 21
6.88329
 31
0.0
  0
LINE
  8
0
 62
     0
 10
11.344
 20
6.88329
 30
0.0
 11
11.344
 21
3.78273
 31
0.0
  0
LINE
  8
0
 62
     0
 10
11.344
 20
3.78273
 30
0.0
 11
12.1447
 21
3.78273
 31
0.0
  0
LINE
  8
0
 62
     0
 10
12.1447
 20
3.78273
 30
0.0
 11
12.1447
 21
2.78364
 31
0.0
  0
LINE
  8
0
 62
     0
 10
12.1447
 20
2.78364
 30
0.0
 11
26.1441
 21
2.78364
 31
0.0
  0
LINE
  8
0
 62
     0
 10
26.1441
 20
2.78364
 30
0.0
 11
26.1441
 21
3.78273
 31
0.0
  0
LINE
  8
0
 62
     0
 10
26.1441
 20
3.78273
 30
0.0
 11
26.9448
 21
3.78273
 31
0.0
  0
LINE
  8
0
 62
     0
 10
26.9448
 20
3.78273
 30
0.0
 11
26.9448
 21
6.88329
 31
0.0
  0
LINE
  8
0
 62
     0
 10
26.9448
 20
6.88329
 30
0.0
 11
26.1441
 21
6.88329
 31
0.0
  0
LINE
  8
0
 62
     0
 10
26.1441
 20
6.88329
 30
0.0
 11
26.1441
 21
12.6835
 31
0.0
  0
LINE
  8
0
 62
     0
 10
26.1441
 20
12.6835
 30
0.0
 11
26.9448
 21
12.6835
 31
0.0
  0
LINE
  8
0
 62
     0
 10
26.9448
 20
12.6835
 30
0.0
 11
26.9448
 21
15.7827
 31
0.0
  0
LINE
  8
0
 62
     0
 10
26.9448
 20
15.7827
 30
0.0
 11
26.1441
 21
15.7827
 31
0.0
  0
LINE
  8
0
 62
     0
 10
26.1441
 20
15.7827
 30
0.0
 11
26.1441
 21
16.7831
 31
0.0
  0
LINE
  8
0
 62
     0
 10
26.1441
 20
16.7831
 30
0.0
 11
12.1447
 21
16.7831
 31
0.0
  0
LINE
  8
0
 62
     0
 10
31.1947
 20
16.7831
 30
0.0
 11
31.1947
 21
15.7827
 31
0.0
  0
LINE
  8
0
 62
     0
 10
31.1947
 20
15.7827
 30
0.0
 11
30.394
 21
15.7827
 31
0.0
  0
LINE
  8
0
 62
     0
 10
30.394
 20
15.7827
 30
0.0
 11
30.394
 21
12.6835
 31
0.0
  0
LINE
  8
0
 62
     0
 10
30.394
 20
12.6835
 30
0.0
 11
31.1947
 21
12.6835
 31
0.0
  0
LINE
  8
0
 62
     0
 10
31.1947
 20
12.6835
 30
0.0
 11
31.1947
 21
6.88329
 31
0.0
  0
LINE
  8
0
 62
     0
 10
31.1947
 20
6.88329
 30
0.0
 11
30.394
 21
6.88329
 31
0.0
  0
LINE
  8
0
 62
     0
 10
30.394
 20
6.88329
 30
0.0
 11
30.394
 21
3.78273
 31
0.0
  0
LINE
  8
0
 62
     0
 10
30.394
 20
3.78273
 30
0.0
 11
31.1947
 21
3.78273
 31
0.0
  0
LINE
  8
0
 62
     0
 10
31.1947
 20
3.78273
 30
0.0
 11
31.1947
 21
2.78364
 31
0.0
  0
LINE
  8
0
 62
     0
 10
31.1947
 20
2.78364
 30
0.0
 11
45.194
 21
2.78364
 31
0.0
  0
LINE
  8
0
 62
     0
 10
45.194
 20
2.78364
 30
0.0
 11
45.194
 21
3.78273
 31
0.0
  0
LINE
  8
0
 62
     0
 10
45.194
 20
3.78273
 30
0.0
 11
45.9948
 21
3.78273
 31
0.0
  0
LINE
  8
0
 62
     0
 10
45.9948
 20
3.78273
 30
0.0
 11
45.9948
 21
6.88329
 31
0.0
  0
LINE
  8
0
 62
     0
 10
45.9948
 20
6.88329
 30
0.0
 11
45.194
 21
6.88329
 31
0.0
  0
LINE
  8
0
 62
     0
 10
45.194
 20
6.88329
 30
0.0
 11
45.194
 21
12.6835
 31
0.0
  0
LINE
  8
0
 62
     0
 10
45.194
 20
12.6835
 30
0.0
 11
45.9948
 21
12.6835
 31
0.0
  0
LINE
  8
0
 62
     0
 10
45.9948
 20
12.6835
 30
0.0
 11
45.9948
 21
15.7827
 31
0.0
  0
LINE
  8
0
 62
     0
 10
45.9948
 20
15.7827
 30
0.0
 11
45.194
 21
15.7827
 31
0.0
  0
LINE
  8
0
 62
     0
 10
45.194
 20
15.7827
 30
0.0
 11
45.194
 21
16.7831
 31
0.0
  0
LINE
  8
0
 62
     0
 10
45.194
 20
16.7831
 30
0.0
 11
31.1947
 21
16.7831
 31
0.0
  0
LINE
  8
0
 62
     0
 10
50.2447
 20
16.7831
 30
0.0
 11
50.2447
 21
15.7827
 31
0.0
  0
LINE
  8
0
 62
     0
 10
50.2447
 20
15.7827
 30
0.0
 11
49.4439
 21
15.7827
 31
0.0
  0
LINE
  8
0
 62
     0
 10
49.4439
 20
15.7827
 30
0.0
 11
49.4439
 21
12.6835
 31
0.0
  0
LINE
  8
0
 62
     0
 10
49.4439
 20
12.6835
 30
0.0
 11
50.2447
 21
12.6835
 31
0.0
  0
LINE
  8
0
 62
     0
 10
50.2447
 20
12.6835
 30
0.0
 11
50.2447
 21
6.88329
 31
0.0
  0
LINE
  8
0
 62
     0
 10
50.2447
 20
6.88329
 30
0.0
 11
49.4439
 21
6.88329
 31
0.0
  0
LINE
  8
0
 62
     0
 10
49.4439
 20
6.88329
 30
0.0
 11
49.4439
 21
3.78273
 31
0.0
  0
LINE
  8
0
 62
     0
 10
49.4439
 20
3.78273
 30
0.0
 11
50.2447
 21
3.78273
 31
0.0
  0
LINE
  8
0
 62
     0
 10
50.2447
 20
3.78273
 30
0.0
 11
50.2447
 21
2.78364
 31
0.0
  0
LINE
  8
0
 62
     0
 10
50.2447
 20
2.78364
 30
0.0
 11
64.244
 21
2.78364
 31
0.0
  0
LINE
  8
0
 62
     0
 10
64.244
 20
2.78364
 30
0.0
 11
64.244
 21
3.78273
 31
0.0
  0
LINE
  8
0
 62
     0
 10
64.244
 20
3.78273
 30
0.0
 11
65.0448
 21
3.78273
 31
0.0
  0
LINE
  8
0
 62
     0
 10
65.0448
 20
3.78273
 30
0.0
 11
65.0448
 21
6.88329
 31
0.0
  0
LINE
  8
0
 62
     0
 10
65.0448
 20
6.88329
 30
0.0
 11
64.244
 21
6.88329
 31
0.0
  0
LINE
  8
0
 62
     0
 10
64.244
 20
6.88329
 30
0.0
 11
64.244
 21
12.6835
 31
0.0
  0
LINE
  8
0
 62
     0
 10
64.244
 20
12.6835
 30
0.0
 11
65.0448
 21
12.6835
 31
0.0
  0
LINE
  8
0
 62
     0
 10
65.0448
 20
12.6835
 30
0.0
 11
65.0448
 21
15.7827
 31
0.0
  0
LINE
  8
0
 62
     0
 10
65.0448
 20
15.7827
 30
0.0
 11
64.244
 21
15.7827
 31
0.0
  0
LINE
  8
0
 62
     0
 10
64.244
 20
15.7827
 30
0.0
 11
64.244
 21
16.7831
 31
0.0
  0
LINE
  8
0
 62
     0
 10
64.244
 20
16.7831
 30
0.0
 11
50.2447
 21
16.7831
 31
0.0
  0
LINE
  8
0
 62
     0
 10
69.2947
 20
16.7831
 30
0.0
 11
69.2947
 21
15.7827
 31
0.0
  0
LINE
  8
0
 62
     0
 10
69.2947
 20
15.7827
 30
0.0
 11
68.4939
 21
15.7827
 31
0.0
  0
LINE
  8
0
 62
     0
 10
68.4939
 20
15.7827
 30
0.0
 11
68.4939
 21
12.6835
 31
0.0
  0
LINE
  8
0
 62
     0
 10
68.4939
 20
12.6835
 30
0.0
 11
69.2947
 21
12.6835
 31
0.0
  0
LINE
  8
0
 62
     0
 10
69.2947
 20
12.6835
 30
0.0
 11
69.2947
 21
6.88329
 31
0.0
  0
LINE
  8
0
 62
     0
 10
69.2947
 20
6.88329
 30
0.0
 11
68.4939
 21
6.88329
 31
0.0
  0
LINE
  8
0
 62
     0
 10
68.4939
 20
6.88329
 30
0.0
 11
68.4939
 21
3.78273
 31
0.0
  0
LINE
  8
0
 62
     0
 10
68.4939
 20
3.78273
 30
0.0
 11
69.2947
 21
3.78273
 31
0.0
  0
LINE
  8
0
 62
     0
 10
69.2947
 20
3.78273
 30
0.0
 11
69.2947
 21
2.78364
 31
0.0
  0
LINE
  8
0
 62
     0
 10
69.2947
 20
2.78364
 30
0.0
 11
83.294
 21
2.78364
 31
0.0
  0
LINE
  8
0
 62
     0
 10
83.294
 20
2.78364
 30
0.0
 11
83.294
 21
3.78273
 31
0.0
  0
LINE
  8
0
 62
     0
 10
83.294
 20
3.78273
 30
0.0
 11
84.0948
 21
3.78273
 31
0.0
  0
LINE
  8
0
 62
     0
 10
84.0948
 20
3.78273
 30
0.0
 11
84.0948
 21
6.88329
 31
0.0
  0
LINE
  8
0
 62
     0
 10
84.0948
 20
6.88329
 30
0.0
 11
83.294
 21
6.88329
 31
0.0
  0
LINE
  8
0
 62
     0
 10
83.294
 20
6.88329
 30
0.0
 11
83.294
 21
12.6835
 31
0.0
  0
LINE
  8
0
 62
     0
 10
83.294
 20
12.6835
 30
0.0
 11
84.0948
 21
12.6835
 31
0.0
  0
LINE
  8
0
 62
     0
 10
84.0948
 20
12.6835
 30
0.0
 11
84.0948
 21
15.7827
 31
0.0
  0
LINE
  8
0
 62
     0
 10
84.0948
 20
15.7827
 30
0.0
 11
83.294
 21
15.7827
 31
0.0
  0
LINE
  8
0
 62
     0
 10
83.294
 20
15.7827
 30
0.0
 11
83.294
 21
16.7831
 31
0.0
  0
LINE
  8
0
 62
     0
 10
83.294
 20
16.7831
 30
0.0
 11
69.2947
 21
16.7831
 31
0.0
  0
LINE
  8
0
 62
     0
 10
7.38216
 20
35.833
 30
0.0
 11
7.38216
 21
34.8327
 31
0.0
  0
LINE
  8
0
 62
     0
 10
7.38216
 20
34.8327
 30
0.0
 11
6.58153
 21
34.8327
 31
0.0
  0
LINE
  8
0
 62
     0
 10
6.58153
 20
34.8327
 30
0.0
 11
6.58153
 21
31.7335
 31
0.0
  0
LINE
  8
0
 62
     0
 10
6.58153
 20
31.7335
 30
0.0
 11
7.38216
 21
31.7335
 31
0.0
  0
LINE
  8
0
 62
     0
 10
7.38216
 20
31.7335
 30
0.0
 11
7.38216
 21
25.9333
 31
0.0
  0
LINE
  8
0
 62
     0
 10
7.38216
 20
25.9333
 30
0.0
 11
6.58153
 21
25.9333
 31
0.0
  0
LINE
  8
0
 62
     0
 10
6.58153
 20
25.9333
 30
0.0
 11
6.58153
 21
22.8327
 31
0.0
  0
LINE
  8
0
 62
     0
 10
6.58153
 20
22.8327
 30
0.0
 11
7.38216
 21
22.8327
 31
0.0
  0
LINE
  8
0
 62
     0
 10
7.38216
 20
22.8327
 30
0.0
 11
7.38216
 21
21.8336
 31
0.0
  0
LINE
  8
0
 62
     0
 10
7.38216
 20
21.8336
 30
0.0
 11
21.3817
 21
21.8336
 31
0.0
  0
LINE
  8
0
 62
     0
 10
21.3817
 20
21.8336
 30
0.0
 11
21.3817
 21
22.8327
 31
0.0
  0
LINE
  8
0
 62
     0
 10
21.3817
 20
22.8327
 30
0.0
 11
22.1809
 21
22.8327
 31
0.0
  0
LINE
  8
0
 62
     0
 10
22.1809
 20
22.8327
 30
0.0
 11
22.1809
 21
25.9333
 31
0.0
  0
LINE
  8
0
 62
     0
 10
22.1809
 20
25.9333
 30
0.0
 11
21.3817
 21
25.9333
 31
0.0
  0
LINE
  8
0
 62
     0
 10
21.3817
 20
25.9333
 30
0.0
 11
21.3817
 21
31.7335
 31
0.0
  0
LINE
  8
0
 62
     0
 10
21.3817
 20
31.7335
 30
0.0
 11
22.1809
 21
31.7335
 31
0.0
  0
LINE
  8
0
 62
     0
 10
22.1809
 20
31.7335
 30
0.0
 11
22.1809
 21
34.8327
 31
0.0
  0
LINE
  8
0
 62
     0
 10
22.1809
 20
34.8327
 30
0.0
 11
21.3817
 21
34.8327
 31
0.0
  0
LINE
  8
0
 62
     0
 10
21.3817
 20
34.8327
 30
0.0
 11
21.3817
 21
35.833
 31
0.0
  0
LINE
  8
0
 62
     0
 10
21.3817
 20
35.833
 30
0.0
 11
7.38216
 21
35.833
 31
0.0
  0
LINE
  8
0
 62
     0
 10
26.4322
 20
35.833
 30
0.0
 11
26.4322
 21
34.8327
 31
0.0
  0
LINE
  8
0
 62
     0
 10
26.4322
 20
34.8327
 30
0.0
 11
25.6315
 21
34.8327
 31
0.0
  0
LINE
  8
0
 62
     0
 10
25.6315
 20
34.8327
 30
0.0
 11
25.6315
 21
31.7335
 31
0.0
  0
LINE
  8
0
 62
     0
 10
25.6315
 20
31.7335
 30
0.0
 11
26.4322
 21
31.7335
 31
0.0
  0
LINE
  8
0
 62
     0
 10
26.4322
 20
31.7335
 30
0.0
 11
26.4322
 21
25.9333
 31
0.0
  0
LINE
  8
0
 62
     0
 10
26.4322
 20
25.9333
 30
0.0
 11
25.6315
 21
25.9333
 31
0.0
  0
LINE
  8
0
 62
     0
 10
25.6315
 20
25.9333
 30
0.0
 11
25.6315
 21
22.8327
 31
0.0
  0
LINE
  8
0
 62
     0
 10
25.6315
 20
22.8327
 30
0.0
 11
26.4322
 21
22.8327
 31
0.0
  0
LINE
  8
0
 62
     0
 10
26.4322
 20
22.8327
 30
0.0
 11
26.4322
 21
21.8336
 31
0.0
  0
LINE
  8
0
 62
     0
 10
26.4322
 20
21.8336
 30
0.0
 11
40.4315
 21
21.8336
 31
0.0
  0
LINE
  8
0
 62
     0
 10
40.4315
 20
21.8336
 30
0.0
 11
40.4315
 21
22.8327
 31
0.0
  0
LINE
  8
0
 62
     0
 10
40.4315
 20
22.8327
 30
0.0
 11
41.2309
 21
22.8327
 31
0.0
  0
LINE
  8
0
 62
     0
 10
41.2309
 20
22.8327
 30
0.0
 11
41.2309
 21
25.9333
 31
0.0
  0
LINE
  8
0
 62
     0
 10
41.2309
 20
25.9333
 30
0.0
 11
40.4315
 21
25.9333
 31
0.0
  0
LINE
  8
0
 62
     0
 10
40.4315
 20
25.9333
 30
0.0
 11
40.4315
 21
31.7335
 31
0.0
  0
LINE
  8
0
 62
     0
 10
40.4315
 20
31.7335
 30
0.0
 11
41.2309
 21
31.7335
 31
0.0
  0
LINE
  8
0
 62
     0
 10
41.2309
 20
31.7335
 30
0.0
 11
41.2309
 21
34.8327
 31
0.0
  0
LINE
  8
0
 62
     0
 10
41.2309
 20
34.8327
 30
0.0
 11
40.4315
 21
34.8327
 31
0.0
  0
LINE
  8
0
 62
     0
 10
40.4315
 20
34.8327
 30
0.0
 11
40.4315
 21
35.833
 31
0.0
  0
LINE
  8
0
 62
     0
 10
40.4315
 20
35.833
 30
0.0
 11
26.4322
 21
35.833
 31
0.0
  0
LINE
  8
0
 62
     0
 10
45.4822
 20
35.833
 30
0.0
 11
45.4822
 21
34.8327
 31
0.0
  0
LINE
  8
0
 62
     0
 10
45.4822
 20
34.8327
 30
0.0
 11
44.6814
 21
34.8327
 31
0.0
  0
LINE
  8
0
 62
     0
 10
44.6814
 20
34.8327
 30
0.0
 11
44.6814
 21
31.7335
 31
0.0
  0
LINE
  8
0
 62
     0
 10
44.6814
 20
31.7335
 30
0.0
 11
45.4822
 21
31.7335
 31
0.0
  0
LINE
  8
0
 62
     0
 10
45.4822
 20
31.7335
 30
0.0
 11
45.4822
 21
25.9333
 31
0.0
  0
LINE
  8
0
 62
     0
 10
45.4822
 20
25.9333
 30
0.0
 11
44.6814
 21
25.9333
 31
0.0
  0
LINE
  8
0
 62
     0
 10
44.6814
 20
25.9333
 30
0.0
 11
44.6814
 21
22.8327
 31
0.0
  0
LINE
  8
0
 62
     0
 10
44.6814
 20
22.8327
 30
0.0
 11
45.4822
 21
22.8327
 31
0.0
  0
LINE
  8
0
 62
     0
 10
45.4822
 20
22.8327
 30
0.0
 11
45.4822
 21
21.8336
 31
0.0
  0
LINE
  8
0
 62
     0
 10
45.4822
 20
21.8336
 30
0.0
 11
59.4815
 21
21.8336
 31
0.0
  0
LINE
  8
0
 62
     0
 10
59.4815
 20
21.8336
 30
0.0
 11
59.4815
 21
22.8327
 31
0.0
  0
LINE
  8
0
 62
     0
 10
59.4815
 20
22.8327
 30
0.0
 11
60.2809
 21
22.8327
 31
0.0
  0
LINE
  8
0
 62
     0
 10
60.2809
 20
22.8327
 30
0.0
 11
60.2809
 21
25.9333
 31
0.0
  0
LINE
  8
0
 62
     0
 10
60.2809
 20
25.9333
 30
0.0
 11
59.4815
 21
25.9333
 31
0.0
  0
LINE
  8
0
 62
     0
 10
59.4815
 20
25.9333
 30
0.0
 11
59.4815
 21
31.7335
 31
0.0
  0
LINE
  8
0
 62
     0
 10
59.4815
 20
31.7335
 30
0.0
 11
60.2809
 21
31.7335
 31
0.0
  0
LINE
  8
0
 62
     0
 10
60.2809
 20
31.7335
 30
0.0
 11
60.2809
 21
34.8327
 31
0.0
  0
LINE
  8
0
 62
     0
 10
60.2809
 20
34.8327
 30
0.0
 11
59.4815
 21
34.8327
 31
0.0
  0
LINE
  8
0
 62
     0
 10
59.4815
 20
34.8327
 30
0.0
 11
59.4815
 21
35.833
 31
0.0
  0
LINE
  8
0
 62
     0
 10
59.4815
 20
35.833
 30
0.0
 11
45.4822
 21
35.833
 31
0.0
  0
LINE
  8
0
 62
     0
 10
64.5322
 20
35.833
 30
0.0
 11
64.5322
 21
34.8327
 31
0.0
  0
LINE
  8
0
 62
     0
 10
64.5322
 20
34.8327
 30
0.0
 11
63.7314
 21
34.8327
 31
0.0
  0
LINE
  8
0
 62
     0
 10
63.7314
 20
34.8327
 30
0.0
 11
63.7314
 21
31.7335
 31
0.0
  0
LINE
  8
0
 62
     0
 10
63.7314
 20
31.7335
 30
0.0
 11
64.5322
 21
31.7335
 31
0.0
  0
LINE
  8
0
 62
     0
 10
64.5322
 20
31.7335
 30
0.0
 11
64.5322
 21
25.9333
 31
0.0
  0
LINE
  8
0
 62
     0
 10
64.5322
 20
25.9333
 30
0.0
 11
63.7314
 21
25.9333
 31
0.0
  0
LINE
  8
0
 62
     0
 10
63.7314
 20
25.9333
 30
0.0
 11
63.7314
 21
22.8327
 31
0.0
  0
LINE
  8
0
 62
     0
 10
63.7314
 20
22.8327
 30
0.0
 11
64.5322
 21
22.8327
 31
0.0
  0
LINE
  8
0
 62
     0
 10
64.5322
 20
22.8327
 30
0.0
 11
64.5322
 21
21.8336
 31
0.0
  0
LINE
  8
0
 62
     0
 10
64.5322
 20
21.8336
 30
0.0
 11
78.5315
 21
21.8336
 31
0.0
  0
LINE
  8
0
 62
     0
 10
78.5315
 20
21.8336
 30
0.0
 11
78.5315
 21
22.8327
 31
0.0
  0
LINE
  8
0
 62
     0
 10
78.5315
 20
22.8327
 30
0.0
 11
79.3309
 21
22.8327
 31
0.0
  0
LINE
  8
0
 62
     0
 10
79.3309
 20
22.8327
 30
0.0
 11
79.3309
 21
25.9333
 31
0.0
  0
LINE
  8
0
 62
     0
 10
79.3309
 20
25.9333
 30
0.0
 11
78.5315
 21
25.9333
 31
0.0
  0
LINE
  8
0
 62
     0
 10
78.5315
 20
25.9333
 30
0.0
 11
78.5315
 21
31.7335
 31
0.0
  0
LINE
  8
0
 62
     0
 10
78.5315
 20
31.7335
 30
0.0
 11
79.3309
 21
31.7335
 31
0.0
  0
LINE
  8
0
 62
     0
 10
79.3309
 20
31.7335
 30
0.0
 11
79.3309
 21
34.8327
 31
0.0
  0
LINE
  8
0
 62
     0
 10
79.3309
 20
34.8327
 30
0.0
 11
78.5315
 21
34.8327
 31
0.0
  0
LINE
  8
0
 62
     0
 10
78.5315
 20
34.8327
 30
0.0
 11
78.5315
 21
35.833
 31
0.0
  0
LINE
  8
0
 62
     0
 10
78.5315
 20
35.833
 30
0.0
 11
64.5322
 21
35.833
 31
0.0
  0
LINE
  8
0
 62
     0
 10
83.5822
 20
35.833
 30
0.0
 11
83.5822
 21
34.8327
 31
0.0
  0
LINE
  8
0
 62
     0
 10
83.5822
 20
34.8327
 30
0.0
 11
82.7814
 21
34.8327
 31
0.0
  0
LINE
  8
0
 62
     0
 10
82.7814
 20
34.8327
 30
0.0
 11
82.7814
 21
31.7335
 31
0.0
  0
LINE
  8
0
 62
     0
 10
82.7814
 20
31.7335
 30
0.0
 11
83.5822
 21
31.7335
 31
0.0
  0
LINE
  8
0
 62
     0
 10
83.5822
 20
31.7335
 30
0.0
 11
83.5822
 21
25.9333
 31
0.0
  0
LINE
  8
0
 62
     0
 10
83.5822
 20
25.9333
 30
0.0
 11
82.7814
 21
25.9333
 31
0.0
  0
LINE
  8
0
 62
     0
 10
82.7814
 20
25.9333
 30
0.0
 11
82.7814
 21
22.8327
 31
0.0
  0
LINE
  8
0
 62
     0
 10
82.7814
 20
22.8327
 30
0.0
 11
83.5822
 21
22.8327
 31
0.0
  0
LINE
  8
0
 62
     0
 10
83.5822
 20
22.8327
 30
0.0
 11
83.5822
 21
21.8336
 31
0.0
  0
LINE
  8
0
 62
     0
 10
83.5822
 20
21.8336
 30
0.0
 11
97.5815
 21
21.8336
 31
0.0
  0
LINE
  8
0
 62
     0
 10
97.5815
 20
21.8336
 30
0.0
 11
97.5815
 21
22.8327
 31
0.0
  0
LINE
  8
0
 62
     0
 10
97.5815
 20
22.8327
 30
0.0
 11
98.3809
 21
22.8327
 31
0.0
  0
LINE
  8
0
 62
     0
 10
98.3809
 20
22.8327
 30
0.0
 11
98.3809
 21
25.9333
 31
0.0
  0
LINE
  8
0
 62
     0
 10
98.3809
 20
25.9333
 30
0.0
 11
97.5815
 21
25.9333
 31
0.0
  0
LINE
  8
0
 62
     0
 10
97.5815
 20
25.9333
 30
0.0
 11
97.5815
 21
31.7335
 31
0.0
  0
LINE
  8
0
 62
     0
 10
97.5815
 20
31.7335
 30
0.0
 11
98.3809
 21
31.7335
 31
0.0
  0
LINE
  8
0
 62
     0
 10
98.3809
 20
31.7335
 30
0.0
 11
98.3809
 21
34.8327
 31
0.0
  0
LINE
  8
0
 62
     0
 10
98.3809
 20
34.8327
 30
0.0
 11
97.5815
 21
34.8327
 31
0.0
  0
LINE
  8
0
 62
     0
 10
97.5815
 20
34.8327
 30
0.0
 11
97.5815
 21
35.833
 31
0.0
  0
LINE
  8
0
 62
     0
 10
97.5815
 20
35.833
 30
0.0
 11
83.5822
 21
35.833
 31
0.0
  0
ENDSEC
  0
EOF
