  0
SECTION
  2
HEADER
  9
$ACADVER
  1
AC1009
  9
$FILLMODE
 70
 0
  9
$SPLFRAME
 70
 1
  9
$EXTMIN
 10
0
 20
0
 30
0.0
  9
$EXTMAX
 10
1058.33
 20
1058.33
 30
0.0
  0
ENDSEC
  0
SECTION
  2
TABLES
  0
TABLE
  2
LAYER
 70
1
  0
LAYER
  2
0
 70
     0
 62
     7
  6
CONTINUOUS
  0
ENDTAB
  0
ENDSEC
  0
SECTION
  2
ENTITIES
  0
LINE
  8
0
 62
     0
 10
0.0950846
 20
38.3575
 30
0.0
 11
81.0578
 21
38.3575
 31
0.0
  0
LINE
  8
0
 62
     0
 10
81.0578
 20
38.3575
 30
0.0
 11
81.0578
 21
0.257693
 31
0.0
  0
LINE
  8
0
 62
     0
 10
81.0578
 20
0.257693
 30
0.0
 11
0.0950846
 21
0.257693
 31
0.0
  0
LINE
  8
0
 62
     0
 10
0.0950846
 20
0.257693
 30
0.0
 11
0.0950846
 21
38.3575
 31
0.0
  0
LINE
  8
0
 62
     0
 10
26.4322
 20
16.7831
 30
0.0
 11
26.4322
 21
15.7827
 31
0.0
  0
LINE
  8
0
 62
     0
 10
26.4322
 20
15.7827
 30
0.0
 11
25.6315
 21
15.7827
 31
0.0
  0
LINE
  8
0
 62
     0
 10
25.6315
 20
15.7827
 30
0.0
 11
25.6315
 21
12.6835
 31
0.0
  0
LINE
  8
0
 62
     0
 10
25.6315
 20
12.6835
 30
0.0
 11
26.4322
 21
12.6835
 31
0.0
  0
LINE
  8
0
 62
     0
 10
26.4322
 20
12.6835
 30
0.0
 11
26.4322
 21
6.88329
 31
0.0
  0
LINE
  8
0
 62
     0
 10
26.4322
 20
6.88329
 30
0.0
 11
25.6315
 21
6.88329
 31
0.0
  0
LINE
  8
0
 62
     0
 10
25.6315
 20
6.88329
 30
0.0
 11
25.6315
 21
3.78273
 31
0.0
  0
LINE
  8
0
 62
     0
 10
25.6315
 20
3.78273
 30
0.0
 11
26.4322
 21
3.78273
 31
0.0
  0
LINE
  8
0
 62
     0
 10
26.4322
 20
3.78273
 30
0.0
 11
26.4322
 21
2.78364
 31
0.0
  0
LINE
  8
0
 62
     0
 10
26.4322
 20
2.78364
 30
0.0
 11
40.4315
 21
2.78364
 31
0.0
  0
LINE
  8
0
 62
     0
 10
40.4315
 20
2.78364
 30
0.0
 11
40.4315
 21
3.78273
 31
0.0
  0
LINE
  8
0
 62
     0
 10
40.4315
 20
3.78273
 30
0.0
 11
41.2309
 21
3.78273
 31
0.0
  0
LINE
  8
0
 62
     0
 10
41.2309
 20
3.78273
 30
0.0
 11
41.2309
 21
6.88329
 31
0.0
  0
LINE
  8
0
 62
     0
 10
41.2309
 20
6.88329
 30
0.0
 11
40.4315
 21
6.88329
 31
0.0
  0
LINE
  8
0
 62
     0
 10
40.4315
 20
6.88329
 30
0.0
 11
40.4315
 21
12.6835
 31
0.0
  0
LINE
  8
0
 62
     0
 10
40.4315
 20
12.6835
 30
0.0
 11
41.2309
 21
12.6835
 31
0.0
  0
LINE
  8
0
 62
     0
 10
41.2309
 20
12.6835
 30
0.0
 11
41.2309
 21
15.7827
 31
0.0
  0
LINE
  8
0
 62
     0
 10
41.2309
 20
15.7827
 30
0.0
 11
40.4315
 21
15.7827
 31
0.0
  0
LINE
  8
0
 62
     0
 10
40.4315
 20
15.7827
 30
0.0
 11
40.4315
 21
16.7831
 31
0.0
  0
LINE
  8
0
 62
     0
 10
40.4315
 20
16.7831
 30
0.0
 11
26.4322
 21
16.7831
 31
0.0
  0
LINE
  8
0
 62
     0
 10
45.4822
 20
16.7831
 30
0.0
 11
45.4822
 21
15.7827
 31
0.0
  0
LINE
  8
0
 62
     0
 10
45.4822
 20
15.7827
 30
0.0
 11
44.6814
 21
15.7827
 31
0.0
  0
LINE
  8
0
 62
     0
 10
44.6814
 20
15.7827
 30
0.0
 11
44.6814
 21
12.6835
 31
0.0
  0
LINE
  8
0
 62
     0
 10
44.6814
 20
12.6835
 30
0.0
 11
45.4822
 21
12.6835
 31
0.0
  0
LINE
  8
0
 62
     0
 10
45.4822
 20
12.6835
 30
0.0
 11
45.4822
 21
6.88329
 31
0.0
  0
LINE
  8
0
 62
     0
 10
45.4822
 20
6.88329
 30
0.0
 11
44.6814
 21
6.88329
 31
0.0
  0
LINE
  8
0
 62
     0
 10
44.6814
 20
6.88329
 30
0.0
 11
44.6814
 21
3.78273
 31
0.0
  0
LINE
  8
0
 62
     0
 10
44.6814
 20
3.78273
 30
0.0
 11
45.4822
 21
3.78273
 31
0.0
  0
LINE
  8
0
 62
     0
 10
45.4822
 20
3.78273
 30
0.0
 11
45.4822
 21
2.78364
 31
0.0
  0
LINE
  8
0
 62
     0
 10
45.4822
 20
2.78364
 30
0.0
 11
59.4815
 21
2.78364
 31
0.0
  0
LINE
  8
0
 62
     0
 10
59.4815
 20
2.78364
 30
0.0
 11
59.4815
 21
3.78273
 31
0.0
  0
LINE
  8
0
 62
     0
 10
59.4815
 20
3.78273
 30
0.0
 11
60.2809
 21
3.78273
 31
0.0
  0
LINE
  8
0
 62
     0
 10
60.2809
 20
3.78273
 30
0.0
 11
60.2809
 21
6.88329
 31
0.0
  0
LINE
  8
0
 62
     0
 10
60.2809
 20
6.88329
 30
0.0
 11
59.4815
 21
6.88329
 31
0.0
  0
LINE
  8
0
 62
     0
 10
59.4815
 20
6.88329
 30
0.0
 11
59.4815
 21
12.6835
 31
0.0
  0
LINE
  8
0
 62
     0
 10
59.4815
 20
12.6835
 30
0.0
 11
60.2809
 21
12.6835
 31
0.0
  0
LINE
  8
0
 62
     0
 10
60.2809
 20
12.6835
 30
0.0
 11
60.2809
 21
15.7827
 31
0.0
  0
LINE
  8
0
 62
     0
 10
60.2809
 20
15.7827
 30
0.0
 11
59.4815
 21
15.7827
 31
0.0
  0
LINE
  8
0
 62
     0
 10
59.4815
 20
15.7827
 30
0.0
 11
59.4815
 21
16.7831
 31
0.0
  0
LINE
  8
0
 62
     0
 10
59.4815
 20
16.7831
 30
0.0
 11
45.4822
 21
16.7831
 31
0.0
  0
LINE
  8
0
 62
     0
 10
64.5322
 20
16.7831
 30
0.0
 11
64.5322
 21
15.7827
 31
0.0
  0
LINE
  8
0
 62
     0
 10
64.5322
 20
15.7827
 30
0.0
 11
63.7314
 21
15.7827
 31
0.0
  0
LINE
  8
0
 62
     0
 10
63.7314
 20
15.7827
 30
0.0
 11
63.7314
 21
12.6835
 31
0.0
  0
LINE
  8
0
 62
     0
 10
63.7314
 20
12.6835
 30
0.0
 11
64.5322
 21
12.6835
 31
0.0
  0
LINE
  8
0
 62
     0
 10
64.5322
 20
12.6835
 30
0.0
 11
64.5322
 21
6.88329
 31
0.0
  0
LINE
  8
0
 62
     0
 10
64.5322
 20
6.88329
 30
0.0
 11
63.7314
 21
6.88329
 31
0.0
  0
LINE
  8
0
 62
     0
 10
63.7314
 20
6.88329
 30
0.0
 11
63.7314
 21
3.78273
 31
0.0
  0
LINE
  8
0
 62
     0
 10
63.7314
 20
3.78273
 30
0.0
 11
64.5322
 21
3.78273
 31
0.0
  0
LINE
  8
0
 62
     0
 10
64.5322
 20
3.78273
 30
0.0
 11
64.5322
 21
2.78364
 31
0.0
  0
LINE
  8
0
 62
     0
 10
64.5322
 20
2.78364
 30
0.0
 11
78.5315
 21
2.78364
 31
0.0
  0
LINE
  8
0
 62
     0
 10
78.5315
 20
2.78364
 30
0.0
 11
78.5315
 21
3.78273
 31
0.0
  0
LINE
  8
0
 62
     0
 10
78.5315
 20
3.78273
 30
0.0
 11
79.3309
 21
3.78273
 31
0.0
  0
LINE
  8
0
 62
     0
 10
79.3309
 20
3.78273
 30
0.0
 11
79.3309
 21
6.88329
 31
0.0
  0
LINE
  8
0
 62
     0
 10
79.3309
 20
6.88329
 30
0.0
 11
78.5315
 21
6.88329
 31
0.0
  0
LINE
  8
0
 62
     0
 10
78.5315
 20
6.88329
 30
0.0
 11
78.5315
 21
12.6835
 31
0.0
  0
LINE
  8
0
 62
     0
 10
78.5315
 20
12.6835
 30
0.0
 11
79.3309
 21
12.6835
 31
0.0
  0
LINE
  8
0
 62
     0
 10
79.3309
 20
12.6835
 30
0.0
 11
79.3309
 21
15.7827
 31
0.0
  0
LINE
  8
0
 62
     0
 10
79.3309
 20
15.7827
 30
0.0
 11
78.5315
 21
15.7827
 31
0.0
  0
LINE
  8
0
 62
     0
 10
78.5315
 20
15.7827
 30
0.0
 11
78.5315
 21
16.7831
 31
0.0
  0
LINE
  8
0
 62
     0
 10
78.5315
 20
16.7831
 30
0.0
 11
64.5322
 21
16.7831
 31
0.0
  0
LINE
  8
0
 62
     0
 10
2.61965
 20
35.833
 30
0.0
 11
2.61965
 21
34.8327
 31
0.0
  0
LINE
  8
0
 62
     0
 10
2.61965
 20
34.8327
 30
0.0
 11
1.81901
 21
34.8327
 31
0.0
  0
LINE
  8
0
 62
     0
 10
1.81901
 20
34.8327
 30
0.0
 11
1.81901
 21
31.7335
 31
0.0
  0
LINE
  8
0
 62
     0
 10
1.81901
 20
31.7335
 30
0.0
 11
2.61965
 21
31.7335
 31
0.0
  0
LINE
  8
0
 62
     0
 10
2.61965
 20
31.7335
 30
0.0
 11
2.61965
 21
25.9333
 31
0.0
  0
LINE
  8
0
 62
     0
 10
2.61965
 20
25.9333
 30
0.0
 11
1.81901
 21
25.9333
 31
0.0
  0
LINE
  8
0
 62
     0
 10
1.81901
 20
25.9333
 30
0.0
 11
1.81901
 21
22.8327
 31
0.0
  0
LINE
  8
0
 62
     0
 10
1.81901
 20
22.8327
 30
0.0
 11
2.61965
 21
22.8327
 31
0.0
  0
LINE
  8
0
 62
     0
 10
2.61965
 20
22.8327
 30
0.0
 11
2.61965
 21
21.8336
 31
0.0
  0
LINE
  8
0
 62
     0
 10
2.61965
 20
21.8336
 30
0.0
 11
16.6192
 21
21.8336
 31
0.0
  0
LINE
  8
0
 62
     0
 10
16.6192
 20
21.8336
 30
0.0
 11
16.6192
 21
22.8327
 31
0.0
  0
LINE
  8
0
 62
     0
 10
16.6192
 20
22.8327
 30
0.0
 11
17.4198
 21
22.8327
 31
0.0
  0
LINE
  8
0
 62
     0
 10
17.4198
 20
22.8327
 30
0.0
 11
17.4198
 21
25.9333
 31
0.0
  0
LINE
  8
0
 62
     0
 10
17.4198
 20
25.9333
 30
0.0
 11
16.6192
 21
25.9333
 31
0.0
  0
LINE
  8
0
 62
     0
 10
16.6192
 20
25.9333
 30
0.0
 11
16.6192
 21
31.7335
 31
0.0
  0
LINE
  8
0
 62
     0
 10
16.6192
 20
31.7335
 30
0.0
 11
17.4198
 21
31.7335
 31
0.0
  0
LINE
  8
0
 62
     0
 10
17.4198
 20
31.7335
 30
0.0
 11
17.4198
 21
34.8327
 31
0.0
  0
LINE
  8
0
 62
     0
 10
17.4198
 20
34.8327
 30
0.0
 11
16.6192
 21
34.8327
 31
0.0
  0
LINE
  8
0
 62
     0
 10
16.6192
 20
34.8327
 30
0.0
 11
16.6192
 21
35.833
 31
0.0
  0
LINE
  8
0
 62
     0
 10
16.6192
 20
35.833
 30
0.0
 11
2.61965
 21
35.833
 31
0.0
  0
LINE
  8
0
 62
     0
 10
21.6697
 20
35.833
 30
0.0
 11
21.6697
 21
34.8327
 31
0.0
  0
LINE
  8
0
 62
     0
 10
21.6697
 20
34.8327
 30
0.0
 11
20.869
 21
34.8327
 31
0.0
  0
LINE
  8
0
 62
     0
 10
20.869
 20
34.8327
 30
0.0
 11
20.869
 21
31.7335
 31
0.0
  0
LINE
  8
0
 62
     0
 10
20.869
 20
31.7335
 30
0.0
 11
21.6697
 21
31.7335
 31
0.0
  0
LINE
  8
0
 62
     0
 10
21.6697
 20
31.7335
 30
0.0
 11
21.6697
 21
25.9333
 31
0.0
  0
LINE
  8
0
 62
     0
 10
21.6697
 20
25.9333
 30
0.0
 11
20.869
 21
25.9333
 31
0.0
  0
LINE
  8
0
 62
     0
 10
20.869
 20
25.9333
 30
0.0
 11
20.869
 21
22.8327
 31
0.0
  0
LINE
  8
0
 62
     0
 10
20.869
 20
22.8327
 30
0.0
 11
21.6697
 21
22.8327
 31
0.0
  0
LINE
  8
0
 62
     0
 10
21.6697
 20
22.8327
 30
0.0
 11
21.6697
 21
21.8336
 31
0.0
  0
LINE
  8
0
 62
     0
 10
21.6697
 20
21.8336
 30
0.0
 11
35.669
 21
21.8336
 31
0.0
  0
LINE
  8
0
 62
     0
 10
35.669
 20
21.8336
 30
0.0
 11
35.669
 21
22.8327
 31
0.0
  0
LINE
  8
0
 62
     0
 10
35.669
 20
22.8327
 30
0.0
 11
36.4698
 21
22.8327
 31
0.0
  0
LINE
  8
0
 62
     0
 10
36.4698
 20
22.8327
 30
0.0
 11
36.4698
 21
25.9333
 31
0.0
  0
LINE
  8
0
 62
     0
 10
36.4698
 20
25.9333
 30
0.0
 11
35.669
 21
25.9333
 31
0.0
  0
LINE
  8
0
 62
     0
 10
35.669
 20
25.9333
 30
0.0
 11
35.669
 21
31.7335
 31
0.0
  0
LINE
  8
0
 62
     0
 10
35.669
 20
31.7335
 30
0.0
 11
36.4698
 21
31.7335
 31
0.0
  0
LINE
  8
0
 62
     0
 10
36.4698
 20
31.7335
 30
0.0
 11
36.4698
 21
34.8327
 31
0.0
  0
LINE
  8
0
 62
     0
 10
36.4698
 20
34.8327
 30
0.0
 11
35.669
 21
34.8327
 31
0.0
  0
LINE
  8
0
 62
     0
 10
35.669
 20
34.8327
 30
0.0
 11
35.669
 21
35.833
 31
0.0
  0
LINE
  8
0
 62
     0
 10
35.669
 20
35.833
 30
0.0
 11
21.6697
 21
35.833
 31
0.0
  0
LINE
  8
0
 62
     0
 10
40.7197
 20
35.833
 30
0.0
 11
40.7197
 21
34.8327
 31
0.0
  0
LINE
  8
0
 62
     0
 10
40.7197
 20
34.8327
 30
0.0
 11
39.9189
 21
34.8327
 31
0.0
  0
LINE
  8
0
 62
     0
 10
39.9189
 20
34.8327
 30
0.0
 11
39.9189
 21
31.7335
 31
0.0
  0
LINE
  8
0
 62
     0
 10
39.9189
 20
31.7335
 30
0.0
 11
40.7197
 21
31.7335
 31
0.0
  0
LINE
  8
0
 62
     0
 10
40.7197
 20
31.7335
 30
0.0
 11
40.7197
 21
25.9333
 31
0.0
  0
LINE
  8
0
 62
     0
 10
40.7197
 20
25.9333
 30
0.0
 11
39.9189
 21
25.9333
 31
0.0
  0
LINE
  8
0
 62
     0
 10
39.9189
 20
25.9333
 30
0.0
 11
39.9189
 21
22.8327
 31
0.0
  0
LINE
  8
0
 62
     0
 10
39.9189
 20
22.8327
 30
0.0
 11
40.7197
 21
22.8327
 31
0.0
  0
LINE
  8
0
 62
     0
 10
40.7197
 20
22.8327
 30
0.0
 11
40.7197
 21
21.8336
 31
0.0
  0
LINE
  8
0
 62
     0
 10
40.7197
 20
21.8336
 30
0.0
 11
54.719
 21
21.8336
 31
0.0
  0
LINE
  8
0
 62
     0
 10
54.719
 20
21.8336
 30
0.0
 11
54.719
 21
22.8327
 31
0.0
  0
LINE
  8
0
 62
     0
 10
54.719
 20
22.8327
 30
0.0
 11
55.5198
 21
22.8327
 31
0.0
  0
LINE
  8
0
 62
     0
 10
55.5198
 20
22.8327
 30
0.0
 11
55.5198
 21
25.9333
 31
0.0
  0
LINE
  8
0
 62
     0
 10
55.5198
 20
25.9333
 30
0.0
 11
54.719
 21
25.9333
 31
0.0
  0
LINE
  8
0
 62
     0
 10
54.719
 20
25.9333
 30
0.0
 11
54.719
 21
31.7335
 31
0.0
  0
LINE
  8
0
 62
     0
 10
54.719
 20
31.7335
 30
0.0
 11
55.5198
 21
31.7335
 31
0.0
  0
LINE
  8
0
 62
     0
 10
55.5198
 20
31.7335
 30
0.0
 11
55.5198
 21
34.8327
 31
0.0
  0
LINE
  8
0
 62
     0
 10
55.5198
 20
34.8327
 30
0.0
 11
54.719
 21
34.8327
 31
0.0
  0
LINE
  8
0
 62
     0
 10
54.719
 20
34.8327
 30
0.0
 11
54.719
 21
35.833
 31
0.0
  0
LINE
  8
0
 62
     0
 10
54.719
 20
35.833
 30
0.0
 11
40.7197
 21
35.833
 31
0.0
  0
LINE
  8
0
 62
     0
 10
59.7697
 20
35.833
 30
0.0
 11
59.7697
 21
34.8327
 31
0.0
  0
LINE
  8
0
 62
     0
 10
59.7697
 20
34.8327
 30
0.0
 11
58.9689
 21
34.8327
 31
0.0
  0
LINE
  8
0
 62
     0
 10
58.9689
 20
34.8327
 30
0.0
 11
58.9689
 21
31.7335
 31
0.0
  0
LINE
  8
0
 62
     0
 10
58.9689
 20
31.7335
 30
0.0
 11
59.7697
 21
31.7335
 31
0.0
  0
LINE
  8
0
 62
     0
 10
59.7697
 20
31.7335
 30
0.0
 11
59.7697
 21
25.9333
 31
0.0
  0
LINE
  8
0
 62
     0
 10
59.7697
 20
25.9333
 30
0.0
 11
58.9689
 21
25.9333
 31
0.0
  0
LINE
  8
0
 62
     0
 10
58.9689
 20
25.9333
 30
0.0
 11
58.9689
 21
22.8327
 31
0.0
  0
LINE
  8
0
 62
     0
 10
58.9689
 20
22.8327
 30
0.0
 11
59.7697
 21
22.8327
 31
0.0
  0
LINE
  8
0
 62
     0
 10
59.7697
 20
22.8327
 30
0.0
 11
59.7697
 21
21.8336
 31
0.0
  0
LINE
  8
0
 62
     0
 10
59.7697
 20
21.8336
 30
0.0
 11
73.769
 21
21.8336
 31
0.0
  0
LINE
  8
0
 62
     0
 10
73.769
 20
21.8336
 30
0.0
 11
73.769
 21
22.8327
 31
0.0
  0
LINE
  8
0
 62
     0
 10
73.769
 20
22.8327
 30
0.0
 11
74.5698
 21
22.8327
 31
0.0
  0
LINE
  8
0
 62
     0
 10
74.5698
 20
22.8327
 30
0.0
 11
74.5698
 21
25.9333
 31
0.0
  0
LINE
  8
0
 62
     0
 10
74.5698
 20
25.9333
 30
0.0
 11
73.769
 21
25.9333
 31
0.0
  0
LINE
  8
0
 62
     0
 10
73.769
 20
25.9333
 30
0.0
 11
73.769
 21
31.7335
 31
0.0
  0
LINE
  8
0
 62
     0
 10
73.769
 20
31.7335
 30
0.0
 11
74.5698
 21
31.7335
 31
0.0
  0
LINE
  8
0
 62
     0
 10
74.5698
 20
31.7335
 30
0.0
 11
74.5698
 21
34.8327
 31
0.0
  0
LINE
  8
0
 62
     0
 10
74.5698
 20
34.8327
 30
0.0
 11
73.769
 21
34.8327
 31
0.0
  0
LINE
  8
0
 62
     0
 10
73.769
 20
34.8327
 30
0.0
 11
73.769
 21
35.833
 31
0.0
  0
LINE
  8
0
 62
     0
 10
73.769
 20
35.833
 30
0.0
 11
59.7697
 21
35.833
 31
0.0
  0
ENDSEC
  0
EOF
